<svg version="1.1" xmlns="http://www.w3.org/2000/svg" width="600" height="600">
  <g fill="none" stroke="#000000" stroke-width="8" stroke-linejoin="round" stroke-linecap="round">
    <path d="M0 0 C4.11152866 1.09081373 6.47226574 3.49036358 9.69140625 6.19921875 C12.85033661 8.34854039 15.32258246 8.50031214 19.05859375 8.65625 C22.03343496 8.88820643 23.75824776 9.96909821 26.0625 11.8125 C26.90349243 13.08444214 26.90349243 13.08444214 27.76147461 14.38208008 C29.89058595 17.1023743 29.89058595 17.1023743 33.27954102 17.44018555 C34.52920654 17.4431665 35.77887207 17.44614746 37.06640625 17.44921875 C38.08419411 17.46478569 38.08419411 17.46478569 39.12254333 17.48066711 C41.2905434 17.51029296 43.45683516 17.50699953 45.625 17.5 C48.45984403 17.51188008 51.29427644 17.5375952 54.12890625 17.57421875 C55.15813705 17.5872554 55.15813705 17.5872554 56.2081604 17.60055542 C62.85970779 17.7366073 69.47608045 18.31391427 75.65844727 20.8972168 C79.61832892 22.40484311 83.22831909 21.3115294 87.23046875 20.22265625 C95.17395244 18.13082664 100.37377601 19.68969964 107.375 23.6875 C111.43804697 26.1240525 114.26308016 28.43938486 115.81141281 33.03568268 C116.07670225 34.25823887 116.07670225 34.25823887 116.34735107 35.50549316 C116.55695056 36.44752877 116.76655005 37.38956438 116.98250103 38.36014652 C117.30972259 39.90373923 117.30972259 39.90373923 117.64355469 41.47851562 C118.00348495 43.11688086 118.00348495 43.11688086 118.37068653 44.78834438 C119.16817007 48.42979383 119.95121593 52.07419528 120.734375 55.71875 C121.29433779 58.28865449 121.85522267 60.85835822 122.41697693 63.4278717 C123.60941757 68.88852622 124.79472671 74.3506867 125.97494507 79.81399536 C127.6539245 87.5859274 129.34358331 95.35550397 131.03667724 103.12437212 C131.8029433 106.64043572 132.5688423 110.15657923 133.3346405 113.67274475 C133.48557877 114.365765 133.63651704 115.05878525 133.7920292 115.77280611 C134.85551805 120.65682828 135.91690894 125.54130349 136.97724915 130.42601013 C140.35140164 145.96861096 143.74374751 161.50694288 147.18359375 177.03515625 C147.36682064 177.86262234 147.55004753 178.69008842 147.73882675 179.54262924 C149.22099269 186.23504206 150.70583738 192.92685837 152.19299316 199.61816406 C153.04090787 203.43378286 153.88573656 207.25008158 154.73046875 211.06640625 C154.97284775 212.15301041 155.21522675 213.23961456 155.46495056 214.35914612 C155.67914139 215.32803268 155.89333221 216.29691925 156.11401367 217.29516602 C156.29904953 218.12774429 156.48408539 218.96032257 156.67472839 219.81813049 C157.0625 221.8125 157.0625 221.8125 157.0625 223.8125 C158.16207031 223.74289062 159.26164062 223.67328125 160.39453125 223.6015625 C171.23203485 223.12145102 178.5290694 224.25591243 187.07421875 231.5234375 C189.44806474 233.79944602 191.56306545 236.14790852 193.5390625 238.77734375 C194.02117187 239.40769531 194.50328125 240.03804687 195 240.6875 C195.40089844 241.26242187 195.80179687 241.83734375 196.21484375 242.4296875 C199.21461143 244.67475676 202.37274022 244.51731922 206.0625 244.8125 C206.95001953 243.16701172 206.95001953 243.16701172 207.85546875 241.48828125 C208.65319379 240.03360618 209.45139626 238.57919286 210.25 237.125 C210.63736328 236.40376953 211.02472656 235.68253906 211.42382812 234.93945312 C213.80379972 230.63190122 216.08548828 226.84937831 220.0625 223.8125 C224.86365963 223.84151003 227.37946873 226.36531884 230.76171875 229.4609375 C234.01357194 232.78456334 236.95793394 236.33470539 239.9309082 239.90673828 C247.01869806 248.40136734 254.80929243 255.38007665 263.55859375 262.09765625 C267.62922676 265.22608529 271.54898899 268.51974503 275.46484375 271.83984375 C281.74183786 276.60658364 287.78396254 278.84798985 295.27734375 280.87890625 C301.03480352 282.54119387 304.65076781 284.44768594 307.7578125 289.65234375 C308.46550781 291.18568359 308.46550781 291.18568359 309.1875 292.75 C311.24174152 297.15606194 311.24174152 297.15606194 313.75390625 301.3046875 C315.414519 304.48711551 315.24905387 306.45748981 314.875 310 C314.77832031 311.04542969 314.68164062 312.09085937 314.58203125 313.16796875 C314.0625 315.8125 314.0625 315.8125 312.0625 317.8125 C305.53169973 318.76310798 298.97034277 317.74829917 293.0625 314.8125 C290.91034934 312.93904511 289.67339745 311.22884618 288.0625 308.8125 C288.09730469 310.01648438 288.13210938 311.22046875 288.16796875 312.4609375 C288.1961028 314.03644442 288.22340337 315.61196638 288.25 317.1875 C288.28770508 318.37859375 288.28770508 318.37859375 288.32617188 319.59375 C288.35254405 321.66836148 288.21736462 323.74350865 288.0625 325.8125 C285.0625 327.8125 285.0625 327.8125 281.6875 327.75 C277.31172779 326.61833477 275.78529031 325.39102441 273.0625 321.8125 C272.7325 320.636875 272.4025 319.46125 272.0625 318.25 C270.88063731 314.18734701 269.46689433 313.16938838 266.0625 310.8125 C264.56093126 307.80936252 264.96968796 305.02182478 265 301.6875 C265.00902344 300.40617187 265.01804687 299.12484375 265.02734375 297.8046875 C265.04474609 296.32355469 265.04474609 296.32355469 265.0625 294.8125 C264.30453125 295.31394531 263.5465625 295.81539063 262.765625 296.33203125 C259.37563419 298.18868807 257.7319468 297.7298617 254.0625 296.8125 C253.7325 296.8125 253.4025 296.8125 253.0625 296.8125 C253.0625 298.7925 253.0625 300.7725 253.0625 302.8125 C246.61724041 302.64723693 242.47456845 299.17038515 238.0625 294.8125 C234.56735405 290.24816384 231.78169534 285.40256932 229.4140625 280.16796875 C225.98925098 272.66279378 225.98925098 272.66279378 219.41796875 268.05859375 C216.67108837 267.18952989 213.88848985 266.52309469 211.0859375 265.859375 C205.04254294 264.42033611 200.18151192 261.24064658 195.0625 257.8125 C194.47662109 257.42368652 193.89074219 257.03487305 193.28710938 256.63427734 C181.42279244 248.69885071 181.42279244 248.69885071 177.625 243.625 C176.779375 242.696875 175.93375 241.76875 175.0625 240.8125 C171.48955543 240.8125 169.23801166 241.22474417 166.0625 242.8125 C160.45030366 243.18051287 155.9439615 242.61812244 150.5 241.1875 C144.6825966 239.73483829 141.69890959 240.02763696 136.0625 241.8125 C130.27543403 242.74296943 125.96584977 241.51408355 120.5625 239.375 C114.21837257 236.91166202 108.75759492 236.35896939 101.99633789 236.19775391 C96.32720502 236.00224394 92.76174847 234.91200431 88.0625 231.8125 C86.77408768 232.88861851 86.77408768 232.88861851 86.8125 235.4375 C86.88068564 238.95809193 86.88068564 238.95809193 88.6875 242.4375 C90.0625 245.8125 90.0625 245.8125 89.578125 248.0078125 C88.0625 249.8125 88.0625 249.8125 85.0078125 250.140625 C83.74710937 250.11484375 82.48640625 250.0890625 81.1875 250.0625 C72.86828915 250.23803194 67.22896099 253.10754167 61.0625 258.8125 C59.54976363 260.87630462 58.32614503 262.92943807 57.1171875 265.1796875 C56.0625 266.8125 56.0625 266.8125 53.3125 268.3125 C49.22010339 268.94209948 45.19415614 269.18652361 41.0625 268.8125 C40.7325 268.4825 40.4025 268.1525 40.0625 267.8125 C40.06842908 266.45770543 40.11787646 265.10301738 40.1875 263.75 C40.24170585 260.32961085 39.88329241 257.84135478 38.5625 254.6875 C36.97749491 250.75978006 36.248373 248.10516966 37.0625 243.8125 C39.39062815 240.17249012 42.17733747 237.01981533 45.0625 233.8125 C45.89910156 232.86761719 46.73570312 231.92273438 47.59765625 230.94921875 C49.73547134 228.55391722 51.88988975 226.17621949 54.0625 223.8125 C46.29163629 227.47832049 41.89194512 233.20247329 37.0390625 240.14453125 C35.29815053 242.49441835 33.5558496 244.43579961 31.4375 246.4375 C26.13349875 251.47386816 21.47793393 257.57507394 20.75 265 C21.04129027 268.55374123 21.42655542 269.8354277 23.0625 272.8125 C25.14880947 276.72903763 25.94611704 279.31408598 25.0625 283.8125 C23.07059969 286.84548415 20.66681288 289.29868448 18.0625 291.8125 C17.51851562 292.35390625 16.97453125 292.8953125 16.4140625 293.453125 C11.15427669 298.35591177 5.16892365 302.29682224 -0.71386719 306.40039062 C-7.1998167 310.94541474 -13.06679793 315.49421532 -18.125 321.625 C-25.78037441 330.57080199 -34.72563469 336.46016831 -45.9375 339.8125 C-52.47333013 341.95460977 -57.72362127 345.01547625 -63.4375 348.8125 C-71.9753831 354.48614944 -78.12276887 358.37799831 -88.625 357.4375 C-98.89511134 357.04188358 -106.84037867 361.01103079 -115.92871094 365.37841797 C-120.38731007 367.50352437 -124.89035686 369.5254703 -129.39892578 371.54199219 C-131.6910461 372.56738947 -133.97881437 373.60259416 -136.26123047 374.64941406 C-143.67393773 377.99982811 -151.11370578 380.59726052 -158.9375 382.8125 C-160.05382812 383.13307373 -161.17015625 383.45364746 -162.3203125 383.78393555 C-167.90347365 385.35328853 -172.30378444 386.45566704 -177.9375 384.8125 C-180.375 383.25 -180.375 383.25 -181.9375 381.8125 C-182 379.5625 -182 379.5625 -180.9375 376.8125 C-178.81230161 375.55194335 -176.65242628 374.68749503 -174.3515625 373.7890625 C-172.13607449 372.89282949 -170.22067869 371.86998607 -168.1875 370.625 C-163.25507366 367.87422377 -159.19105546 367.79578424 -153.625 367.75 C-142.65084632 367.05543331 -133.37568417 361.5803269 -124.9375 354.8125 C-122.90234375 353.87109375 -122.90234375 353.87109375 -120.875 353.25 C-120.10542969 353.01152344 -119.33585937 352.77304687 -118.54296875 352.52734375 C-114.63381878 351.45481835 -110.69115801 350.53553511 -106.734375 349.65625 C-103.77820676 348.76444506 -101.54908531 347.43348399 -98.9375 345.8125 C-98.2775 345.8125 -97.6175 345.8125 -96.9375 345.8125 C-96.67130859 345.21727539 -96.40511719 344.62205078 -96.13085938 344.00878906 C-93.908316 339.91836349 -90.36163749 336.6463845 -85.921875 335.11914062 C-83.76595432 334.68755124 -81.61552125 334.36224724 -79.4375 334.0625 C-70.21775083 332.41866139 -63.90037966 328.5715698 -56.51953125 322.98291016 C-54.38267496 321.40203222 -52.13481209 320.02231714 -49.875 318.625 C-43.17061452 314.13015776 -40.06928791 309.16539335 -36.9375 301.8125 C-35.31196717 300.10569053 -33.64634005 298.43589805 -31.9375 296.8125 C-28.93442434 292.91962415 -28.2441808 289.06274486 -27.46484375 284.3125 C-26.90335226 281.6506144 -26.01112157 279.30722233 -24.9375 276.8125 C-26.70867187 277.26302734 -26.70867187 277.26302734 -28.515625 277.72265625 C-30.07279623 278.10725878 -31.63009468 278.49134649 -33.1875 278.875 C-33.96480469 279.07416016 -34.74210938 279.27332031 -35.54296875 279.47851562 C-36.29707031 279.66220703 -37.05117187 279.84589844 -37.828125 280.03515625 C-38.51938477 280.20797119 -39.21064453 280.38078613 -39.92285156 280.55883789 C-42.24820576 280.85162061 -43.7527011 280.65439995 -45.9375 279.8125 C-46.39125 278.9875 -46.845 278.1625 -47.3125 277.3125 C-48.69942714 274.61060758 -48.69942714 274.61060758 -51.375 274 C-62.21435168 273.42835222 -62.21435168 273.42835222 -72.9375 274.8125 C-74.75961511 271.69957057 -75.16164697 269.52181911 -75.0625 265.93359375 C-75.04703125 265.01255859 -75.0315625 264.09152344 -75.015625 263.14257812 C-74.98984375 262.18802734 -74.9640625 261.23347656 -74.9375 260.25 C-74.88647359 258.35309325 -74.84441015 256.45591835 -74.8125 254.55859375 C-74.78929687 253.71997803 -74.76609375 252.8813623 -74.7421875 252.01733398 C-74.78588941 249.52087152 -74.78588941 249.52087152 -76.9375 246.8125 C-81.59190284 245.26103239 -86.49194148 245.52503294 -91.37109375 245.38671875 C-95.52145742 244.71847838 -96.42029098 244.0886128 -98.9375 240.8125 C-99.3603125 240.31290771 -99.783125 239.81331543 -100.21875 239.29858398 C-103.81907894 234.78578038 -104.94357235 230.6827919 -105.875 225.0625 C-107.16669902 218.24774596 -109.13603689 213.05806071 -112.71875 207.0625 C-114.5543569 203.67368726 -114.78704398 201.56465256 -113.9375 197.8125 C-110.64288171 191.42173441 -105.11780889 187.35413364 -99.56640625 182.99609375 C-96.22485654 180.22057178 -93.67035661 177.17601583 -90.9375 173.8125 C-88.48494998 172.58622499 -87.32088039 172.85221404 -84.625 173.1875 C-83.820625 173.28160156 -83.01625 173.37570312 -82.1875 173.47265625 C-79.9375 173.8125 -79.9375 173.8125 -77.125 174.625 C-74.82563125 175.06112148 -74.82563125 175.06112148 -72.9375 173.375 C-70.31752392 170.01815565 -68.10562383 166.47343039 -65.9375 162.8125 C-62.53537701 164.42632757 -59.83425481 166.39853766 -56.9375 168.8125 C-54.62666631 167.42356131 -54.62666631 167.42356131 -52.9375 164.8125 C-53.15632993 161.69565213 -54.04849768 158.7985019 -54.9375 155.8125 C-56.44623289 150.12573755 -55.20913986 147.08270448 -52.9375 141.8125 C-55.40333892 143.25090604 -57.68537153 144.58558438 -59.8125 146.5 C-62.92874538 148.42473979 -65.34809462 148.13298262 -68.9375 147.8125 C-69.57719727 147.48620605 -70.21689453 147.15991211 -70.87597656 146.82373047 C-73.1829611 145.69209499 -74.86775041 145.47987813 -77.421875 145.3203125 C-78.70191406 145.22169922 -78.70191406 145.22169922 -80.0078125 145.12109375 C-81.77819879 144.99979906 -83.54905009 144.88509117 -85.3203125 144.77734375 C-92.06761626 144.24039615 -97.89750853 142.75442722 -102.875 137.9375 C-104.65240002 134.38269995 -105.03526683 131.151307 -104.74609375 127.19140625 C-104.23043894 121.63055478 -104.23043894 121.63055478 -106.4921875 116.76953125 C-108.24360909 115.2889118 -109.97638281 113.99817544 -111.9375 112.8125 C-111.44922289 108.2959367 -111.44922289 108.2959367 -109.3828125 106.34375 C-99.69799861 100.27913811 -87.27637798 96.93962515 -75.9375 98.8125 C-70.30124573 101.02674275 -68.04075469 103.96882758 -64.74609375 108.8515625 C-62.53008463 111.2542333 -61.15771634 111.59258279 -57.9375 111.8125 C-55.89867905 110.94120693 -55.89867905 110.94120693 -54.9375 108.8125 C-55.01894103 104.49612563 -55.63519487 102.24436447 -58.125 98.6875 C-58.723125 97.73875 -59.32125 96.79 -59.9375 95.8125 C-59.1875 92.9375 -59.1875 92.9375 -57.9375 90.8125 C-58.55238281 90.78671875 -59.16726562 90.7609375 -59.80078125 90.734375 C-66.36563221 90.2736837 -66.36563221 90.2736837 -68.875 88.25 C-70.01992022 85.62341832 -70.65353346 83.00523222 -71.29296875 80.21875 C-73.69301879 71.25856318 -77.43832508 64.37313283 -83.9375 57.8125 C-87.90409708 53.64757307 -87.90409708 53.64757307 -88.0625 49.6875 C-86.9375 46.8125 -86.9375 46.8125 -84.4375 45.22265625 C-79.51901714 43.24099072 -74.63190701 42.71433089 -69.39453125 42.08398438 C-65.96697076 41.60046374 -63.52608443 41.21154029 -60.6328125 39.25 C-57.75564158 35.11323813 -55.92091137 30.53758387 -53.9375 25.92382812 C-50.70684454 18.68640272 -50.70684454 18.68640272 -46.9375 16.8125 C-44.60546875 16.328125 -44.60546875 16.328125 -42.125 16.0625 C-37.02312979 15.1958603 -34.64767568 13.22739063 -31.3125 9.37109375 C-29.9375 7.8125 -29.9375 7.8125 -27.9375 6.8125 C-25.9987006 6.87295719 -24.05987785 6.93739321 -22.12231445 7.02929688 C-13.61182405 7.57040555 -13.61182405 7.57040555 -6.25 3.8125 C-5.66734375 3.27238281 -5.0846875 2.73226562 -4.484375 2.17578125 C-2.9375 0.8125 -2.9375 0.8125 0 0 Z M-6.2421875 8.62890625 C-10.39038194 11.52499592 -15.3404552 10.98051516 -20.0625 10.1875 C-24.54817785 9.75340214 -26.25040052 10.29856853 -29.9375 12.8125 C-30.47375 13.6375 -31.01 14.4625 -31.5625 15.3125 C-34.41838449 18.3186942 -35.87432699 18.36785187 -39.875 19.125 C-44.08166914 19.99273632 -44.08166914 19.99273632 -47.5859375 22.28125 C-48.92371956 24.40015313 -49.93196777 26.51463426 -50.9375 28.8125 C-51.79127762 30.63802451 -52.64613426 32.46315045 -53.5222168 34.27807617 C-54.12269042 35.53075802 -54.70436912 36.79266058 -55.26489258 38.0637207 C-56.53150782 40.77192691 -57.50954922 42.54950479 -60.0859375 44.1328125 C-64.85515781 45.26958556 -69.6703929 45.96642409 -74.51953125 46.66796875 C-75.29941406 46.78785156 -76.07929688 46.90773437 -76.8828125 47.03125 C-77.58937988 47.13373047 -78.29594727 47.23621094 -79.02392578 47.34179688 C-81.24775543 47.77385401 -81.24775543 47.77385401 -83.9375 49.8125 C-82.98734818 52.92208778 -82.32612147 54.52103389 -79.6875 56.5 C-71.97229494 62.98778607 -68.31113372 73.78964448 -66.125 83.375 C-65.10828053 86.16051743 -65.10828053 86.16051743 -61.75 87.0625 C-59.8628125 87.43375 -59.8628125 87.43375 -57.9375 87.8125 C-56.621405 88.17468118 -55.30861807 88.54917025 -54 88.9375 C-52.989375 89.22625 -51.97875 89.515 -50.9375 89.8125 C-50.9375 90.8025 -50.9375 91.7925 -50.9375 92.8125 C-52.9175 93.8025 -52.9175 93.8025 -54.9375 94.8125 C-53.55589963 98.36629856 -53.55589963 98.36629856 -51.8125 101.75 C-50.56580685 104.68863385 -50.48558713 106.64910991 -50.9375 109.8125 C-53.2871856 112.922378 -55.19455226 114.482301 -58.75 116.0625 C-63.81135094 115.6655313 -66.56505893 112.41221427 -69.9375 108.8125 C-70.55625 107.884375 -71.175 106.95625 -71.8125 106 C-75.22754668 102.48451077 -79.16228008 102.10384526 -83.9375 101.8125 C-92.22113649 102.28454546 -100.37977436 106.64602206 -107.9375 109.8125 C-106.7906012 112.73187876 -105.95678822 113.7991134 -103.3203125 115.62890625 C-100.9375 117.8125 -100.9375 117.8125 -100.5546875 121.08984375 C-100.63976562 122.29769531 -100.72484375 123.50554687 -100.8125 124.75 C-101.15081406 129.85199432 -101.0923173 132.68296321 -97.9375 136.8125 C-92.68853328 140.68015969 -87.54298909 140.89091051 -81.1875 141.1875 C-76.72337553 141.45366642 -73.07437125 141.92944563 -68.9375 143.625 C-66.90634104 144.48171073 -66.90634104 144.48171073 -64.9375 144.8125 C-61.57763775 143.16311308 -59.55656238 141.43156238 -56.9375 138.8125 C-53.3125 139.1875 -53.3125 139.1875 -49.9375 139.8125 C-50.85720803 146.51322993 -50.85720803 146.51322993 -51.625 149.375 C-52.13272777 151.89631531 -52.13272777 151.89631531 -51 154.5 C-49.56121342 158.98562876 -49.2886142 163.14212441 -49.9375 167.8125 C-51.85733432 170.72780396 -53.18902303 171.50543252 -56.375 172.8125 C-59.9627446 172.8125 -61.32636895 171.14134661 -63.9375 168.8125 C-64.5975 168.8125 -65.2575 168.8125 -65.9375 168.8125 C-67.2655064 170.56924121 -67.2655064 170.56924121 -68.5 172.75 C-70.88097826 176.75597826 -70.88097826 176.75597826 -71.9375 177.8125 C-78.93962615 178.05818864 -78.93962615 178.05818864 -82 177.3046875 C-84.29395874 176.65567986 -84.29395874 176.65567986 -87.9375 176.8125 C-89.98459813 178.5383047 -91.46438054 180.42983746 -93.0859375 182.55859375 C-95.03555635 184.93186395 -97.02931401 186.56123554 -99.5 188.375 C-106.7753628 193.82179456 -106.7753628 193.82179456 -110.625 201.75 C-110.09096093 205.02520436 -110.09096093 205.02520436 -107.6875 208.0625 C-104.71631911 212.36158296 -104.01163121 216.65134605 -103.0625 221.6875 C-100.94650753 232.59535126 -100.94650753 232.59535126 -93.9375 240.8125 C-90.30184886 241.58280094 -87.05188149 241.75488623 -83.33984375 241.65234375 C-78.46303815 241.88190636 -75.37345001 243.23807263 -72.07421875 246.85546875 C-70.37658565 251.27164833 -70.62091017 255.44135607 -70.75 260.125 C-70.77030273 261.52202148 -70.77030273 261.52202148 -70.79101562 262.94726562 C-70.82623118 265.23627646 -70.87547901 267.52408458 -70.9375 269.8125 C-69.9475 269.80089844 -68.9575 269.78929687 -67.9375 269.77734375 C-63.93645324 269.74188246 -59.93847937 269.76786433 -55.9375 269.8125 C-55.07898438 269.81636719 -54.22046875 269.82023437 -53.3359375 269.82421875 C-50.53451749 269.98105501 -48.48485157 270.32851179 -46.3515625 272.21484375 C-44.9375 273.875 -44.9375 273.875 -42.9375 276.8125 C-41.99648437 276.5959375 -41.05546875 276.379375 -40.0859375 276.15625 C-38.21808594 275.73859375 -38.21808594 275.73859375 -36.3125 275.3125 C-34.46785156 274.89484375 -34.46785156 274.89484375 -32.5859375 274.46875 C-24.52490157 273.01879921 -24.52490157 273.01879921 -20.9375 274.8125 C-21.37317494 277.35393713 -21.8566873 279.62393703 -22.875 282 C-23.8770817 284.65256922 -24.2326673 286.83602628 -24.625 289.625 C-25.70141713 295.47965903 -28.74194472 298.77526756 -32.9375 302.8125 C-35.21330515 304.72919735 -35.21330515 304.72919735 -35.625 307.9375 C-38.81654238 319.09641797 -50.39630698 324.13439145 -59.73193359 329.50292969 C-61.88870322 330.78352658 -63.95268493 332.1615247 -66.03515625 333.55859375 C-69.74908025 335.8997506 -73.0585345 336.62633005 -77.4375 337.1875 C-84.55446349 338.43137843 -88.15272971 340.53877508 -92.9375 345.8125 C-99.73228293 352.45285605 -108.06114494 354.21499223 -117.125 356.125 C-122.42244162 357.38400236 -125.55828408 359.5120157 -129.63671875 363.03125 C-136.3974368 368.26535429 -144.21846199 370.81246465 -152.625 370.875 C-161.88343938 371.18610193 -169.06008006 375.26823278 -176.9375 379.8125 C-176.2775 380.4725 -175.6175 381.1325 -174.9375 381.8125 C-153.85325056 380.98566669 -133.41097263 369.21737682 -114.625 360.61181641 C-113.63635201 360.16079811 -113.63635201 360.16079811 -112.62773132 359.70066833 C-110.81569745 358.87380507 -109.00509208 358.04381334 -107.19458008 357.21362305 C-101.86445829 354.92072379 -97.92119784 353.62021958 -92.07739258 353.99438477 C-78.37978809 354.83046216 -69.04767776 348.31188017 -58.12744141 340.94628906 C-53.25700638 337.76688222 -48.46512361 336.25677671 -42.8984375 334.75390625 C-38.25542073 333.27769643 -34.75658898 330.77229396 -30.9375 327.8125 C-30.091875 327.19117188 -29.24625 326.56984375 -28.375 325.9296875 C-24.3544705 322.87839279 -21.0704922 320.0913719 -18.16796875 315.94921875 C-14.88561428 311.44686951 -11.01674067 308.60051733 -6.4375 305.5 C-4.83956981 304.38115375 -3.2432354 303.26002524 -1.6484375 302.13671875 C-0.85791992 301.58290527 -0.06740234 301.0290918 0.74707031 300.45849609 C4.2118062 297.9954795 7.58694668 295.42797373 10.9375 292.8125 C11.78344727 292.16414185 11.78344727 292.16414185 12.64648438 291.50268555 C18.66669745 286.78146604 18.66669745 286.78146604 21.5625 280 C21.0941193 277.01407306 20.46657775 275.47254384 19.0625 272.875 C16.63494104 268.29731739 16.21471296 264.81063431 17.65234375 259.7265625 C19.81511515 254.04555008 23.21501654 250.17968664 27.375 245.828125 C30.12621767 242.85730713 32.45180132 239.62109734 34.83056641 236.34985352 C40.10331788 229.12545916 44.62862118 223.43145721 53.0625 219.8125 C53.74699219 219.44253906 54.43148437 219.07257813 55.13671875 218.69140625 C57.81054055 217.47110218 60.1642482 217.68076128 63.0625 217.8125 C61.59604769 223.06810761 58.2250545 225.8335859 54.375 229.4375 C45.79818937 237.60183832 45.79818937 237.60183832 40.0625 247.8125 C40.93150061 251.48012358 40.93150061 251.48012358 43.0625 254.8125 C43.62559534 258.13231428 43.86645153 261.4526349 44.0625 264.8125 C47.25646618 264.99356384 50.00954274 264.80888316 53.0625 263.8125 C55.07542234 261.77779279 56.55376344 259.60830962 58.16015625 257.2421875 C61.38636124 253.12165463 65.70630416 250.61648813 70.0625 247.8125 C70.3925 247.4825 70.7225 247.1525 71.0625 246.8125 C73.58846259 246.57596477 76.09357207 246.39076308 78.625 246.25 C79.33591797 246.20681641 80.04683594 246.16363281 80.77929688 246.11914062 C82.54011912 246.01278223 84.3012832 245.91211154 86.0625 245.8125 C85.546875 244.86375 85.03125 243.915 84.5 242.9375 C82.41498896 238.19263843 83.2302263 233.79611483 84.0625 228.8125 C87.0459001 227.92280747 88.57339973 227.61262729 91.5 228.80859375 C92.7684375 229.52208984 92.7684375 229.52208984 94.0625 230.25 C98.45975236 232.41036361 101.488725 233.05711206 106.375 232.8125 C112.96856534 232.4985207 117.80766518 234.30155837 123.88671875 236.6953125 C128.44209027 238.29781712 132.22367389 238.58565223 136.94140625 237.30078125 C143.81782379 235.7178122 150.42654462 236.80919271 157.0625 238.8125 C160.99316011 239.21327319 164.41201354 239.0336654 168.1875 237.75 C171.70171212 236.60406127 173.50600762 236.85480989 177.0625 237.8125 C179.23828125 239.7109375 179.23828125 239.7109375 181.375 242.1875 C185.7466358 246.80458424 190.33400095 250.26596391 195.6875 253.6875 C196.39173096 254.13915527 197.09596191 254.59081055 197.8215332 255.05615234 C205.15691008 259.65199575 211.96242931 263.03940196 220.44921875 264.90625 C226.25412652 266.91931219 228.69937152 270.48077895 231.29638672 275.75390625 C231.83030029 276.86572266 231.83030029 276.86572266 232.375 278 C237.98932264 289.63242307 237.98932264 289.63242307 248.0625 296.8125 C247.68617503 291.41850878 246.07007621 289.34298381 242.0625 285.8125 C241.25039063 285.14734375 241.25039063 285.14734375 240.421875 284.46875 C238.6104863 282.26177066 238.73088376 280.82428293 238.6875 278 C238.36669375 273.82951869 237.68676106 271.30861922 234.66796875 268.18359375 C232.14031773 266.02494288 229.47915835 264.07988154 226.734375 262.20703125 C225.0625 260.8125 225.0625 260.8125 224.0625 257.8125 C225.67503453 256.19996547 227.39849043 256.56458577 229.625 256.5 C236.49802738 256.57854888 240.87027761 258.85856265 245.9375 263.375 C248.0625 265.8125 248.0625 265.8125 250.0625 268.8125 C251.3825 268.8125 252.7025 268.8125 254.0625 268.8125 C256.8125 270.8125 256.8125 270.8125 259.0625 272.8125 C258.75505859 273.63041016 258.75505859 273.63041016 258.44140625 274.46484375 C256.55680388 279.73992693 254.82357011 285.14644832 255.0625 290.8125 C255.7225 291.8025 256.3825 292.7925 257.0625 293.8125 C261.54949971 292.44147231 263.20810735 290.42806402 266.0625 286.8125 C267.0525 286.8125 268.0425 286.8125 269.0625 286.8125 C269.03631592 287.42770508 269.01013184 288.04291016 268.9831543 288.67675781 C268.87904079 291.47174408 268.81413251 294.26632258 268.75 297.0625 C268.70810547 298.03058594 268.66621094 298.99867188 268.62304688 299.99609375 C268.57664815 302.68721989 268.59213469 305.16129844 269.0625 307.8125 C271.34372981 310.22755141 271.34372981 310.22755141 274.0625 311.8125 C275.3203125 314.3203125 275.3203125 314.3203125 276.1875 316.9375 C277.54500577 321.10935785 277.54500577 321.10935785 281.0625 323.8125 C282.0525 323.8125 283.0425 323.8125 284.0625 323.8125 C284.05089844 322.53632813 284.03929687 321.26015625 284.02734375 319.9453125 C284.01796583 318.27604313 284.00886563 316.60677217 284 314.9375 C283.99162109 314.09574219 283.98324219 313.25398438 283.97460938 312.38671875 C283.96977539 311.17822266 283.96977539 311.17822266 283.96484375 309.9453125 C283.95698853 308.82987061 283.95698853 308.82987061 283.94897461 307.69189453 C284.0625 305.8125 284.0625 305.8125 285.0625 303.8125 C287.25 303.875 287.25 303.875 290.0625 304.8125 C291.26171875 306.3671875 291.26171875 306.3671875 292.4375 308.25 C294.37635041 311.19753583 294.9559278 311.76625168 298.375 313.25 C302.38747163 313.86207194 306.01136266 313.95464517 310.0625 313.8125 C311.16842594 308.46901624 311.89097727 304.30427394 308.8125 299.5625 C308.10867188 298.6034375 308.10867188 298.6034375 307.390625 297.625 C306.0625 295.8125 306.0625 295.8125 304.5625 292.5625 C302.11793369 288.08079509 299.18886174 286.20313184 294.390625 284.5390625 C293.03287334 284.16591712 291.67341435 283.79894044 290.3125 283.4375 C279.23229251 280.1946951 271.81623587 273.90544833 263.19921875 266.48046875 C260.65292736 264.29563586 258.04782764 262.21695674 255.375 260.1875 C246.62784494 253.4088517 239.4203025 246.1793744 232.70410156 237.39672852 C229.49997373 233.27749296 226.5827741 230.4448153 222.0625 227.8125 C217.67652265 231.76221672 215.03032174 235.94832773 212.25 241.125 C211.84330078 241.86556641 211.43660156 242.60613281 211.01757812 243.36914062 C210.02485772 245.17939548 209.04259307 246.99537755 208.0625 248.8125 C201.68040106 248.56024313 197.00370423 248.21661681 192.0625 243.8125 C190.81926745 242.19823592 189.59160354 240.57192697 188.375 238.9375 C183.66036234 232.96032829 178.6114303 228.51424199 170.78051758 227.52391052 C168.24506154 227.35184879 165.71573684 227.24123268 163.17578125 227.16015625 C162.29748657 227.12345825 161.41919189 227.08676025 160.51428223 227.0489502 C158.36406344 226.96048489 156.21331096 226.88515803 154.0625 226.8125 C153.84855701 225.83498669 153.84855701 225.83498669 153.63029194 224.83772564 C150.08783963 208.65227098 146.54491254 192.46692032 143.00151539 176.28167248 C141.4542811 169.21429384 139.90708666 162.14690651 138.36031806 155.07942593 C138.02739142 153.55824951 137.69444443 152.03707753 137.36147702 150.51591003 C136.53207742 146.72673729 135.70295428 142.93750448 134.87438774 139.14814949 C133.2223586 131.59480447 131.56454588 124.04280002 129.89578247 116.49313354 C129.23407051 113.4960538 128.57307207 110.49881754 127.91259766 107.50146484 C127.75042637 106.76577577 127.58825509 106.0300867 127.42116952 105.27210402 C125.16580989 95.02484416 123.01071933 84.76086783 120.92438805 74.47794998 C120.07995321 70.33630836 119.21645483 66.1985982 118.35190576 62.06111437 C117.67807823 58.82671773 117.02280668 55.5901595 116.39197731 52.34706688 C115.70392185 48.81267074 114.97170767 45.29014899 114.22924805 41.7668457 C113.94775815 40.2215578 113.94775815 40.2215578 113.66058159 38.64505196 C112.46979303 33.23338606 111.2474926 30.4015026 106.59114075 27.21769714 C100.30386011 23.58886362 95.25961904 22.21314021 88.0625 23.8125 C87.258125 24.18375 86.45375 24.555 85.625 24.9375 C80.21132148 26.78607315 75.15843961 24.90314189 70.0625 22.8125 C65.45318874 22.03452187 60.95074701 21.65601769 56.28125 21.53125 C55.02699219 21.49386719 53.77273438 21.45648438 52.48046875 21.41796875 C51.18753906 21.38316406 49.89460937 21.34835938 48.5625 21.3125 C45.9894824 21.24323632 43.4165572 21.17043182 40.84375 21.09375 C39.71001953 21.06345703 38.57628906 21.03316406 37.40820312 21.00195312 C27.70915516 20.45273675 27.70915516 20.45273675 25.48828125 18.25390625 C25.12089844 17.63386719 24.75351562 17.01382813 24.375 16.375 C22.40414356 13.75778742 21.49580351 12.92022071 18.265625 12.1171875 C16.16905143 11.87206571 14.07134987 11.63640947 11.97265625 11.41015625 C8.09534854 10.61387695 6.19083969 8.91574476 3.5625 6.0546875 C-0.54301104 2.65481117 -3.10999075 5.85085235 -6.2421875 8.62890625 Z M230.0625 259.8125 C230.784375 260.534375 231.50625 261.25625 232.25 262 C233.178125 262.928125 234.10625 263.85625 235.0625 264.8125 C235.949375 265.493125 236.83625 266.17375 237.75 266.875 C240.82415085 270.78000243 240.96690554 274.20062657 241.41015625 279.0703125 C241.82823996 281.9219972 241.82823996 281.9219972 243.99609375 283.6796875 C245.96203603 284.97273643 245.96203603 284.97273643 248.0625 284.8125 C249.5475 289.2675 249.5475 289.2675 251.0625 293.8125 C251.85087724 290.65899103 252.495193 287.57053395 253.0625 284.375 C253.69085787 280.84539603 254.34835986 277.32581443 255.0625 273.8125 C254.0725 273.1525 253.0825 272.4925 252.0625 271.8125 C251.7325 273.1325 251.4025 274.4525 251.0625 275.8125 C249.13671875 275.57421875 249.13671875 275.57421875 247.0625 274.8125 C246.33203125 272.95703125 246.33203125 272.95703125 245.875 270.625 C244.39348066 265.50107123 241.81496718 263.59885806 237.4140625 260.80859375 C234.78402399 259.69454089 232.8901323 259.61766315 230.0625 259.8125 Z" transform="translate(233.9375,107.1875)"/>
    <path d="M0 0 C5.87563988 0.13465008 11.78657344 1.0676604 17.25 3.25 C19.0625 6.8125 19.0625 6.8125 20.25 10.25 C22.25951883 11.10119357 24.15860186 11.43248815 26.3046875 11.8046875 C29.26623722 12.48263262 30.60512263 13.74692575 32.25 16.25 C31.95 20.55 31.95 20.55 30.25 22.25 C27.77642763 22.40349136 25.34995481 22.48159885 22.875 22.5 C21.84632812 22.5309375 21.84632812 22.5309375 20.796875 22.5625 C15.73826435 22.60186662 15.73826435 22.60186662 13.3203125 20.859375 C12.25 19.25 12.25 19.25 11.5 17.25 C9.85589039 14.61942462 7.88272452 14.16892841 5.0625 13.10546875 C2.21297567 11.7605424 0.35975506 9.54059121 -1.75 7.25 C-2.41 6.92 -3.07 6.59 -3.75 6.25 C-3.792721 4.58388095 -3.79063832 2.91617115 -3.75 1.25 C-2.75 0.25 -2.75 0.25 0 0 Z M2.25 4.25 C2.58 4.91 2.91 5.57 3.25 6.25 C3.91 6.25 4.57 6.25 5.25 6.25 C5.58 7.24 5.91 8.23 6.25 9.25 C7.920625 9.8996875 7.920625 9.8996875 9.625 10.5625 C13.85550736 12.53187411 14.63739059 13.98132804 16.25 18.25 C20.21 18.25 24.17 18.25 28.25 18.25 C25.52621094 14.98608836 25.52621094 14.98608836 21.8125 14.5 C18.25 13.25 18.25 13.25 16.5625 9.75 C16.27503906 9.12996094 15.98757812 8.50992187 15.69140625 7.87109375 C12.52718283 4.3124143 6.74814483 4.59655518 2.25 4.25 Z" transform="translate(75.75,250.75)"/>
    <path d="M0 0 C0.77279297 -0.03738281 1.54558594 -0.07476562 2.34179688 -0.11328125 C6.40743644 -0.17620602 8.07019795 -0.17424546 11.203125 2.61328125 C13.38121795 6.6656805 13.38337111 9.88956572 12.6875 14.375 C11.35748445 17.03503109 10.65709029 18.04008821 7.85546875 19.0078125 C3.9448473 19.67015199 0.37354574 18.72195076 -3.3125 17.375 C-6.51235305 14.7751194 -8.01133332 13.27850005 -9.3125 9.375 C-9.49062624 6.6821504 -9.39977698 4.08058632 -9.3125 1.375 C-7.20155145 -0.73594855 -2.89681524 0.05236642 0 0 Z M-5.3125 3.375 C-5.6425 4.035 -5.9725 4.695 -6.3125 5.375 C-4.49120741 10.29644924 -4.49120741 10.29644924 -1.3125 14.375 C0.85425925 14.87302293 0.85425925 14.87302293 3.25 15.0625 C4.05566406 15.14886719 4.86132812 15.23523438 5.69140625 15.32421875 C6.35011719 15.34097656 7.00882813 15.35773438 7.6875 15.375 C8.9120178 14.37030377 8.9120178 14.37030377 8.8203125 12.34375 C8.81773438 11.5290625 8.81515625 10.714375 8.8125 9.875 C8.81507812 9.0603125 8.81765625 8.245625 8.8203125 7.40625 C8.9120178 5.37969623 8.9120178 5.37969623 7.6875 4.375 C5.50457226 4.14018307 3.31546826 3.96136677 1.125 3.8125 C-0.07253906 3.72871094 -1.27007812 3.64492188 -2.50390625 3.55859375 C-3.43074219 3.49800781 -4.35757813 3.43742187 -5.3125 3.375 Z" transform="translate(110.3125,332.625)"/>
    <path d="M0 0 C2.58103791 2.11175829 4.51204262 3.83406337 5.8125 6.94140625 C6 9 6 9 4.890625 10.88671875 C4.07851563 11.77810547 4.07851563 11.77810547 3.25 12.6875 C2.71890625 13.28949219 2.1878125 13.89148438 1.640625 14.51171875 C0 16 0 16 -3 17 C-2.690625 17.556875 -2.38125 18.11375 -2.0625 18.6875 C-0.87320712 21.27596096 -0.13948598 23.14053751 0 26 C-3.13304355 31.41162068 -9.37459992 36.70300849 -15.29296875 38.8203125 C-17.18630426 39.25484852 -19.09263224 39.63191149 -21 40 C-21.66 40.66 -22.32 41.32 -23 42 C-25.41796875 42.3515625 -25.41796875 42.3515625 -28 42 C-29.80078125 40.4609375 -29.80078125 40.4609375 -31.3125 38.375 C-32.08013672 37.36566406 -32.08013672 37.36566406 -32.86328125 36.3359375 C-34.35569873 33.26904523 -34.52128783 31.37070012 -34 28 C-31.98828125 25.83984375 -31.98828125 25.83984375 -29.3125 23.9375 C-25.55700293 21.15917164 -22.26321933 18.35386431 -19 15 C-18.030625 14.2575 -17.06125 13.515 -16.0625 12.75 C-12.66086859 10.00759948 -10.57057925 6.58233835 -8.296875 2.890625 C-6.0725899 -0.3520075 -3.75096498 -0.52339046 0 0 Z M-4 4 C-6.12475326 6.32394888 -7.78293207 8.58757093 -9.25 11.375 C-14.16442496 18.74663745 -22.70546482 24.13697655 -30 29 C-29.46930939 32.82097239 -28.50298434 35.06171403 -26 38 C-25.44183594 37.69707031 -24.88367188 37.39414062 -24.30859375 37.08203125 C-21.90793521 35.9568495 -19.63041946 35.33244741 -17.0625 34.6875 C-12.50742809 33.36786887 -10.06650231 31.71697249 -7 28 C-6 27 -5 26 -4 25 C-4.495 24.278125 -4.99 23.55625 -5.5 22.8125 C-7.90721649 18.29896907 -7.90721649 18.29896907 -7 15 C-5.03604823 13.48557497 -3.02782855 12.29372727 -0.84765625 11.11328125 C1.15842761 10.12923023 1.15842761 10.12923023 2 8 C0.70532323 5.94009522 0.70532323 5.94009522 -1 4 C-1.99 4 -2.98 4 -4 4 Z" transform="translate(272,390)"/>
  </g>
</svg>