<svg version="1.1" xmlns="http://www.w3.org/2000/svg" width="125" height="200" viewBox="0 0 215.000000 230.000000">
  <g fill="none" stroke="#000000" stroke-width="6" stroke-linejoin="round" stroke-linecap="round">
    <path d="M0 0 C6.51942268 4.40465127 14.5355592 12.02670104 16.7890625 19.6796875 C17.85929155 22.33351741 17.85929155 22.33351741 21.1328125 23.30859375 C25.15408229 24.02754805 28.79474974 24.16349629 32.875 24.0625 C35.24949014 24.00906235 37.62499909 23.97927057 40 24 C40.33 24.33 40.66 24.66 41 25 C40.9531355 30.56515916 39.95634335 35.22436843 37 40 C36.47921875 40.46792969 35.9584375 40.93585937 35.421875 41.41796875 C33.30050845 43.77828044 33.67956793 46.2728626 33.4296875 49.31640625 C32.49616908 55.14665309 30.52284545 62.09185801 25.69140625 65.74609375 C22.87813984 67.05677374 20.19467287 67.92664903 17.1875 68.6875 C16.21167969 68.93886719 15.23585937 69.19023438 14.23046875 69.44921875 C13.49441406 69.63097656 12.75835937 69.81273438 12 70 C11.855625 71.2375 11.71125 72.475 11.5625 73.75 C10.88590872 76.50952587 10.55564921 77.6544413 8.109375 79.17578125 C6.54037771 79.78149959 4.96437471 80.36929773 3.3828125 80.94140625 C-0.59800548 82.70993358 -3.14544359 85.79238004 -6 89 C-8.25054584 91.38694256 -10.1849965 93.12201897 -12.9375 94.9375 C-16.06583169 96.90224992 -16.06583169 96.90224992 -18.5625 99.5625 C-21 102 -21 102 -23.625 103.5 C-26.2011354 104.82658124 -26.2011354 104.82658124 -27.1875 107.5625 C-29.81651655 111.09807398 -32.70573592 111.08143808 -36.91796875 111.73828125 C-37.60503906 111.82464844 -38.29210937 111.91101563 -39 112 C-39 112.66 -39 113.32 -39 114 C-39.31802943 115.66965451 -39.64984951 117.33678518 -40 119 C-40.66 119 -41.32 119 -42 119 C-42.66 120.98 -43.32 122.96 -44 125 C-44.66 125 -45.32 125 -46 125 C-45.690625 126.794375 -45.690625 126.794375 -45.375 128.625 C-44.87109715 131.54763655 -44.99729797 132.9923161 -46 135.84375 C-47.15419814 139.48668787 -47.011166 142.09057319 -46.625 145.875 C-46.51414062 147.02742187 -46.40328125 148.17984375 -46.2890625 149.3671875 C-46.19367188 150.23601562 -46.09828125 151.10484375 -46 152 C-46.66 152.33 -47.32 152.66 -48 153 C-47.34 153.99 -46.68 154.98 -46 156 C-45.02814702 164.49959558 -46.45709291 171.81927588 -51 179 C-51.66 179 -52.32 179 -53 179 C-53.66 180.32 -54.32 181.64 -55 183 C-55.99 183 -56.98 183 -58 183 C-58.33 183.99 -58.66 184.98 -59 186 C-59.66 186.33 -60.32 186.66 -61 187 C-61.33 187.99 -61.66 188.98 -62 190 C-65.16835131 193.69640986 -67.13071791 195.55733799 -72 196 C-72.60199219 196.14695313 -73.20398438 196.29390625 -73.82421875 196.4453125 C-81.44163268 197.99413973 -88.19477904 195.38178667 -95 192 C-99.86084103 188.29064211 -101.88301971 183.99107612 -103 178 C-103.15706109 176.39689368 -103.3020715 174.79257856 -103.4375 173.1875 C-103.99511929 166.66534582 -105.5094668 159.62833381 -109 154 C-110.69950428 152.89506665 -110.69950428 152.89506665 -112.625 152.25 C-113.73875 151.8375 -114.8525 151.425 -116 151 C-116 150.34 -116 149.68 -116 149 C-115.22011719 148.77441406 -114.44023438 148.54882812 -113.63671875 148.31640625 C-110.85036499 147.23202476 -110.85036499 147.23202476 -109.70703125 144.71484375 C-109.41183594 143.79832031 -109.11664063 142.88179687 -108.8125 141.9375 C-108.49023438 140.9578125 -108.16796875 139.978125 -107.8359375 138.96875 C-106.88662808 135.59737075 -106.14626588 132.23466328 -105.58984375 128.77734375 C-105 127 -105 127 -102 125 C-101.63702064 123.02252878 -101.63702064 123.02252878 -101.8125 120.875 C-101.874375 119.59625 -101.93625 118.3175 -102 117 C-102.721875 116.896875 -103.44375 116.79375 -104.1875 116.6875 C-107.39022322 115.9046121 -109.42539682 115.07398589 -112 113 C-112.8125 109.8125 -112.8125 109.8125 -113 107 C-114.11375 106.79375 -115.2275 106.5875 -116.375 106.375 C-120 105 -120 105 -121.4375 101.875 C-121.623125 100.92625 -121.80875 99.9775 -122 99 C-119.75 98.375 -119.75 98.375 -117 98 C-116.43925781 98.31839844 -115.87851563 98.63679688 -115.30078125 98.96484375 C-111.98315341 100.45749465 -109.05459646 100.22639351 -105.4375 100.1875 C-104.76525391 100.18685547 -104.09300781 100.18621094 -103.40039062 100.18554688 C-100.33586829 100.1581579 -97.9272839 99.9757613 -95 99 C-93.515 99.495 -93.515 99.495 -92 100 C-92 98.68 -92 97.36 -92 96 C-94.64 96.33 -97.28 96.66 -100 97 C-100.309375 96.34 -100.61875 95.68 -100.9375 95 C-103.35479996 92.65595155 -104.10740191 92.63048645 -107.375 92.5 C-111.73566815 92.67017242 -113.83692896 93.9327796 -117 97 C-117.66 97 -118.32 97 -119 97 C-117.75023244 93.34683329 -117.32901247 92.21934164 -114 90 C-111.91870117 89.78881836 -111.91870117 89.78881836 -109.54296875 89.83984375 C-108.67736328 89.85080078 -107.81175781 89.86175781 -106.91992188 89.87304688 C-106.01822266 89.89431641 -105.11652344 89.91558594 -104.1875 89.9375 C-98.65271663 90.04571083 -93.452977 90.11483085 -88 89 C-85.33605586 88.63916476 -82.6690653 88.32212857 -80 88 C-80 87.34 -80 86.68 -80 86 C-73.88633807 84.08019588 -68.42036221 82.71655061 -61.99609375 82.95703125 C-59.24426573 83.01626825 -56.68963707 82.55015304 -54 82 C-52.576875 81.7215625 -52.576875 81.7215625 -51.125 81.4375 C-50.073125 81.2209375 -50.073125 81.2209375 -49 81 C-48.76591771 77.2682193 -48.76591771 77.2682193 -49.75 75 C-50 73 -50 73 -48.6875 70.6875 C-44.53238919 68.07847693 -40.67731516 69.178792 -36 70 C-34.25981097 67.99912109 -34.25981097 67.99912109 -33 65 C-33.25038506 63.03699606 -33.25038506 63.03699606 -33.75 60.9375 C-34.81722688 54.21958763 -30.5993771 49.34199307 -27 44 C-26.58621094 43.34257813 -26.17242187 42.68515625 -25.74609375 42.0078125 C-24.44206487 39.95204933 -23.16849452 38.15553341 -21.375 36.5 C-18.47042556 33.33137333 -17.99743449 29.58878529 -18.015625 25.4140625 C-18.13164062 23.53847656 -18.13164062 23.53847656 -18.25 21.625 C-18.36481095 14.29862604 -16.9688291 11.13932814 -12 6 C-11.22436971 4.87135848 -10.47138849 3.72655871 -9.75 2.5625 C-6.84242601 -1.69501905 -4.78225429 -1.41696423 0 0 Z M-6 1 C-8.18912581 3.6582242 -10.21329475 6.31994212 -12.125 9.1875 C-14 12 -14 12 -16 14 C-16.04077093 16.16668371 -15.98321818 18.33563649 -15.875 20.5 C-15.77454091 27.00974872 -16.53711472 32.39452683 -20 38 C-20.99 38.66 -21.98 39.32 -23 40 C-24.0394002 41.9798099 -25.0288775 43.98582 -26 46 C-26.50273438 46.72445312 -27.00546875 47.44890625 -27.5234375 48.1953125 C-31.60955843 54.16143272 -32.56720829 58.21668468 -31.91796875 65.43359375 C-32 68 -32 68 -33.37109375 69.796875 C-35.34355504 71.25375288 -36.54774676 71.78362471 -39 72 C-40.2375 71.443125 -40.2375 71.443125 -41.5 70.875 C-42.325 70.58625 -43.15 70.2975 -44 70 C-46.32511472 71.26352052 -46.32511472 71.26352052 -48 73 C-47.649375 73.556875 -47.29875 74.11375 -46.9375 74.6875 C-45.75591887 77.6020668 -45.99067254 79.04965818 -47 82 C-50.02754355 84.01836237 -50.71837515 84.25547839 -54.1328125 84.34375 C-54.93976563 84.37339844 -55.74671875 84.40304688 -56.578125 84.43359375 C-57.41859375 84.45550781 -58.2590625 84.47742188 -59.125 84.5 C-71.35065197 84.72359702 -71.35065197 84.72359702 -82 90 C-83.19625 90.309375 -84.3925 90.61875 -85.625 90.9375 C-89.00525703 91.64403866 -89.00525703 91.64403866 -90.375 93.8125 C-91.05581066 96.19533731 -91.59257612 98.55545674 -92 101 C-93.65 101 -95.3 101 -97 101 C-97 101.99 -97 102.98 -97 104 C-95.68 104 -94.36 104 -93 104 C-93.99 108.95 -93.99 108.95 -95 114 C-99 112 -99 112 -99.8125 109.625 C-99.99311589 107.09637759 -99.68767848 105.40687468 -99 103 C-101.13112021 100.86887979 -106.28220649 101.60072691 -109.27734375 101.48242188 C-113.24159136 101.27603177 -116.41247322 100.71728511 -120 99 C-120.03525132 100.88658874 -120.03525132 100.88658874 -119 103 C-117.22030953 104.00309827 -115.43723885 105.00202083 -113.62109375 105.9375 C-112 107 -112 107 -111.125 109.4375 C-109.71030543 112.65985986 -108.54995357 112.88473573 -105.4375 114.375 C-101.16203819 116.56789815 -101.16203819 116.56789815 -99.6875 120.5 C-100 124 -100 124 -101.92578125 126.3203125 C-104.31353042 129.4050506 -104.8121596 131.56472618 -105.5 135.375 C-106.59563784 140.72001776 -108.06504508 144.44575961 -111 149 C-111 149.66 -111 150.32 -111 151 C-110.236875 151.66 -109.47375 152.32 -108.6875 153 C-105.45108253 156.05305104 -104.66475227 159.57912928 -103.578125 163.79296875 C-103.07561684 166.02040955 -103.07561684 166.02040955 -102 168 C-102.03189795 170.00957058 -102.06634162 172.01971076 -102.16015625 174.02734375 C-102.13434422 176.32449615 -102.13434422 176.32449615 -100 179 C-99.731875 180.11375 -99.46375 181.2275 -99.1875 182.375 C-97.5467182 187.38370235 -95.37025146 189.78915368 -90.66015625 192.1953125 C-84.04516974 195.04025407 -79.04033495 195.66744775 -72 194 C-71.2575 193.87625 -70.515 193.7525 -69.75 193.625 C-69.1725 193.41875 -68.595 193.2125 -68 193 C-67.67 192.01 -67.34 191.02 -67 190 C-64.9375 188.8125 -64.9375 188.8125 -63 188 C-63.33 187.01 -63.66 186.02 -64 185 C-62.68 184.67 -61.36 184.34 -60 184 C-60 183.01 -60 182.02 -60 181 C-58.88625 181.1546875 -58.88625 181.1546875 -57.75 181.3125 C-54.82851204 181.26962365 -54.82851204 181.26962365 -52.875 178.875 C-49.29826036 173.39066588 -47.58234393 169.44551937 -47.625 162.8125 C-47.61726563 161.60207031 -47.60953125 160.39164063 -47.6015625 159.14453125 C-48.03359532 155.73486044 -48.44726181 155.09272699 -51 153 C-51.33 152.01 -51.66 151.02 -52 150 C-50.35 150 -48.7 150 -47 150 C-47.165 149.030625 -47.33 148.06125 -47.5 147.0625 C-48.41754546 140.58725061 -48.19518455 134.42411696 -47 128 C-47 126.68 -47 125.36 -47 124 C-46.01 123.34 -45.02 122.68 -44 122 C-41.82857328 119.13061469 -40.90922758 117.81695175 -41.3125 114.1875 C-41.539375 113.465625 -41.76625 112.74375 -42 112 C-38.96843705 109.88709249 -37.17459954 109.01531575 -33.4375 108.6875 C-29.76230736 108.35908296 -29.76230736 108.35908296 -27.9375 105.125 C-26.9784375 103.578125 -26.9784375 103.578125 -26 102 C-24.01679982 100.96708324 -22.01652194 99.9662501 -20 99 C-19.38125 98.21625 -18.7625 97.4325 -18.125 96.625 C-16.11351161 94.14022023 -14.94392122 93.26991664 -12.25 91.75 C-8.79674915 89.73932714 -6.59315997 87.5237939 -4.0625 84.4375 C-0.66147951 80.35761968 2.22472302 78.83068829 7.12890625 77.01953125 C9.41394454 76.04207384 9.41394454 76.04207384 10.25 72.5625 C12.4546019 68.07456041 13.89974862 67.95399939 18.5 66.3125 C20.21703125 65.78076172 20.21703125 65.78076172 21.96875 65.23828125 C26.08917739 63.55506542 27.19755674 61.60211947 29.1328125 57.73828125 C30.88469555 53.4551341 32.18167526 49.70094619 32.5 45.0625 C32.6640625 42.81640625 32.6640625 42.81640625 33 41 C34.30144802 39.95884159 35.63838689 38.96113866 37 38 C38.76612992 34.08186303 40 30.30779805 40 26 C38.15535156 25.90912109 38.15535156 25.90912109 36.2734375 25.81640625 C34.64061573 25.73194995 33.00780373 25.64730453 31.375 25.5625 C30.56675781 25.52318359 29.75851563 25.48386719 28.92578125 25.44335938 C24.54849135 25.21203918 20.31452719 24.83079083 16 24 C15.7834375 22.576875 15.7834375 22.576875 15.5625 21.125 C13.91355479 15.24615186 9.13802274 11.26057742 5 7 C4.50757813 6.43410156 4.01515625 5.86820312 3.5078125 5.28515625 C0.6342718 2.04537997 -1.72129676 1.29851418 -6 1 Z M-101 91 C-101 91.66 -101 92.32 -101 93 C-100.01 92.67 -99.02 92.34 -98 92 C-98.99 91.67 -99.98 91.34 -101 91 Z M-98 105 C-99.29633621 106.06645115 -99.29633621 106.06645115 -99.0625 108.5625 C-99.041875 109.366875 -99.02125 110.17125 -99 111 C-98.01 111.33 -97.02 111.66 -96 112 C-95.67 110.02 -95.34 108.04 -95 106 C-95.99 105.67 -96.98 105.34 -98 105 Z " transform="translate(140,2)"/>
  </g>
</svg>