<svg xmlns="http://www.w3.org/2000/svg" version="1.1" viewBox="0 0 1000 700.44" style="max-height: 500px" width="1000" height="700.44">
  <g fill="none" stroke="#000000" stroke-width="8" stroke-linejoin="round" stroke-linecap="round">
    <path transform="translate(162.625,60.875)" d="M0 0 C1.670625 0.061875 1.670625 0.061875 3.375 0.125 C3.87 1.61 3.87 1.61 4.375 3.125 C5.261875 2.815625 6.14875 2.50625 7.0625 2.1875 C16.62661416 -0.88023473 26.98992377 -1.46348766 36.2734375 2.78515625 C39.82353629 5.0485092 41.38751975 7.41503687 43.375 11.125 C43.375 12.445 43.375 13.765 43.375 15.125 C44.365 15.455 45.355 15.785 46.375 16.125 C45.91666025 21.77785694 43.50578822 29.99421178 39.375 34.125 C39.30186433 36.65549402 39.28252473 39.15804837 39.3125 41.6875 C39.31701172 42.39841797 39.32152344 43.10933594 39.32617188 43.84179688 C39.33799136 45.60290013 39.35592737 47.36396036 39.375 49.125 C37.89 49.62 37.89 49.62 36.375 50.125 C36.07464844 50.74246094 35.77429688 51.35992187 35.46484375 51.99609375 C34.07524294 54.71054695 32.51622957 55.59961233 29.9375 57.1875 C27.06118782 58.97394101 24.7452601 60.7203883 22.375 63.125 C18.20372684 64.71989856 14.89159615 63.6470719 10.73046875 62.6015625 C8.37269312 62.12453327 6.27518708 62.01940867 3.875 62.0625 C2.72 62.083125 1.565 62.10375 0.375 62.125 C0.045 61.795 -0.285 61.465 -0.625 61.125 C-1.8625 61.0425 -3.1 60.96 -4.375 60.875 C-7.88196562 60.48463758 -8.6437649 60.10982838 -11.5625 57.75 C-13.625 55.125 -13.625 55.125 -14.625 52.125 C-18.2287898 50.60339986 -20.67720686 50.125 -24.625 50.125 C-26.875 48.5625 -26.875 48.5625 -29.625 46.125 C-30.305625 45.61582031 -30.98625 45.10664062 -31.6875 44.58203125 C-38.03370267 39.62972667 -38.03370267 39.62972667 -38.75 35 C-38.56434911 29.24482249 -38.56434911 29.24482249 -36.625 26.125 C-35.13977891 24.93036565 -33.65226283 23.7379547 -32.13671875 22.58203125 C-30.35520675 20.86496671 -29.57060582 19.25075055 -28.5625 17 C-26.88301661 13.33001778 -25.48474825 11.68727905 -21.625 10.125 C-18.3125 9.4375 -18.3125 9.4375 -15.625 9.125 C-15.625 8.465 -15.625 7.805 -15.625 7.125 C-14.92632812 6.78726563 -14.22765625 6.44953125 -13.5078125 6.1015625 C-12.59773438 5.65554687 -11.68765625 5.20953125 -10.75 4.75 C-9.39261719 4.08871094 -9.39261719 4.08871094 -8.0078125 3.4140625 C-1.8125 0.0625 -1.8125 0.0625 0 0 Z M-5.875 4.875 C-10.81035378 8.31675988 -15.80689471 11.06038245 -21.4375 13.1875 C-25.28618622 14.83693695 -26.87241248 17.31040666 -28.5 21.0625 C-29.92518227 24.11172719 -30.52128814 25.05193028 -33.375 27.0625 C-35.98486525 29.45487648 -36.08202281 30.14469188 -36.3125 33.5625 C-36.08961692 37.33912989 -35.75014549 37.98764519 -33.0625 40.9375 C-31.93939557 41.70121101 -30.79187548 42.43000383 -29.625 43.125 C-28.76068359 43.69541016 -28.76068359 43.69541016 -27.87890625 44.27734375 C-25.06050715 46.04119708 -22.88666437 47.09829955 -19.5625 47.4375 C-16.15847987 48.23418556 -15.87971405 48.8102016 -13.875 51.5 C-10.76166079 55.55149209 -7.56767853 56.46738684 -2.69921875 57.6171875 C-0.625 58.125 -0.625 58.125 0.375 59.125 C3.72135004 59.8051903 7.11076903 60.16042635 10.5 60.5625 C11.90765625 60.77422852 11.90765625 60.77422852 13.34375 60.99023438 C18.63427375 61.64577003 18.63427375 61.64577003 23.51293945 59.88671875 C25.25079765 58.38153399 26.79543365 56.79212606 28.375 55.125 C30.01334629 54.07924705 31.66867772 53.05572125 33.375 52.125 C33.045 50.475 32.715 48.825 32.375 47.125 C33.695 47.125 35.015 47.125 36.375 47.125 C37.19694526 43.9399621 37.31570381 41.30115342 37.0625 38.0625 C36.94207376 32.54141988 39.40304776 28.53366542 42.0625 23.82421875 C43.66653003 21.02568894 43.66653003 21.02568894 43.375 17.125 C42.385 16.63 42.385 16.63 41.375 16.125 C41.106875 15.2175 40.83875 14.31 40.5625 13.375 C39.14202772 9.48739167 37.56598742 7.73580789 34.375 5.125 C29.34282501 2.94689441 24.87140374 2.88164704 19.5 3 C18.71625 3.00902344 17.9325 3.01804688 17.125 3.02734375 C15.20819945 3.05071937 13.29155809 3.08658347 11.375 3.125 C11.045 3.785 10.715 4.445 10.375 5.125 C8.065 5.125 5.755 5.125 3.375 5.125 C2.88 3.64 2.88 3.64 2.375 2.125 C-1.92130852 2.125 -2.58079179 2.4813667 -5.875 4.875 Z"/>
    <path transform="translate(81,99)" d="M0 0 C2 2 2 2 2.125 4.625 C2.08375 5.40875 2.0425 6.1925 2 7 C1.34 7.33 0.68 7.66 0 8 C-0.43147971 9.95695135 -0.43147971 9.95695135 -0.5625 12.25 C-0.63855469 13.06082031 -0.71460937 13.87164062 -0.79296875 14.70703125 C-0.86128906 15.46371094 -0.92960937 16.22039062 -1 17 C-1.375 19.9375 -1.375 19.9375 -2 22 C-5.23212582 24.15475054 -6.06645185 24.08984573 -9.75 24.25 C-12.49914877 24.57411586 -12.49914877 24.57411586 -15 26 C-16.91678095 28.96920219 -18.35604402 31.77054916 -19.66699219 35.03417969 C-21.60242555 39.79470144 -21.60242555 39.79470144 -24.02734375 41.046875 C-27.21954106 40.97102081 -28.75759186 39.12119689 -31 37 C-32.61530832 33.76938335 -32.44937002 30.50262388 -32 27 C-30.97964821 24.11869572 -29.59923594 21.59805699 -28 19 C-27.484375 18.13375 -26.96875 17.2675 -26.4375 16.375 C-23.17811567 13.19918962 -19.49982845 11.3839611 -15.4609375 9.33203125 C-12.43895985 7.69632589 -11.25547371 6.65465137 -10 3.4375 C-8.10204563 -1.18876377 -4.50171072 -0.24116307 0 0 Z M-8 4 C-8.309375 4.886875 -8.61875 5.77375 -8.9375 6.6875 C-11.65622473 11.05393669 -14.83635295 12.27896733 -19.3359375 14.5703125 C-25.23520631 17.73619576 -27.9089642 21.72689261 -30 28 C-30.75137168 31.1292764 -30.75137168 31.1292764 -30 34 C-27.11490087 36.42422186 -27.11490087 36.42422186 -24 38 C-23.60167969 37.16855469 -23.60167969 37.16855469 -23.1953125 36.3203125 C-22.84210937 35.59585938 -22.48890625 34.87140625 -22.125 34.125 C-21.77695312 33.40570313 -21.42890625 32.68640625 -21.0703125 31.9453125 C-20 30 -20 30 -18 28 C-17.3574765 25.93125966 -17.3574765 25.93125966 -17 24 C-16.14535156 23.81824219 -15.29070312 23.63648437 -14.41015625 23.44921875 C-13.30542969 23.19785156 -12.20070313 22.94648437 -11.0625 22.6875 C-9.96035156 22.44386719 -8.85820313 22.20023438 -7.72265625 21.94921875 C-6.82417969 21.63597656 -5.92570312 21.32273437 -5 21 C-4.11112566 18.33337699 -3.82294566 16.38681323 -3.625 13.625 C-3.23899452 9.7459613 -2.36347373 7.18555155 0 4 C-1.05224667 2.72443182 -1.05224667 2.72443182 -3.4375 2.875 C-5.98978622 2.82693324 -5.98978622 2.82693324 -8 4 Z"/>
    <path transform="translate(427,152)" d="M0 0 C3.78115409 3.52907715 7.36841456 7.81374269 8.8125 12.8125 C9.8832131 15.68651937 10.68166883 17.01106352 12.625 19.25 C15 22 15 22 15 24 C15.598125 24.061875 16.19625 24.12375 16.8125 24.1875 C19 25 19 25 20.75 27.125 C22.27284413 30.6275415 22.28559656 33.21584557 22 37 C21.505 37.99 21.505 37.99 21 39 C21.639375 39.556875 22.27875 40.11375 22.9375 40.6875 C25.19680987 43.22066561 25.63149047 44.68341424 26 48 C26.99 48 27.98 48 29 48 C29 46.35 29 44.7 29 43 C32.21451269 41.39274365 35.43612536 41.94251815 39 42 C39.6875 43.8125 39.6875 43.8125 40 46 C38.5625 47.625 38.5625 47.625 37 49 C37 49.66 37 50.32 37 51 C38.98 51.495 38.98 51.495 41 52 C41.05994141 52.96099609 41.05994141 52.96099609 41.12109375 53.94140625 C41.63531635 58.20120085 42.09478598 61.05837884 45.13671875 64.22265625 C47.36940365 65.92959117 49.61348778 67.51702327 52 69 C51.62669176 71.72574271 51.20805399 72.80822085 49.15234375 74.703125 C48.05599609 75.46882813 48.05599609 75.46882813 46.9375 76.25 C45.83728516 77.03117187 45.83728516 77.03117187 44.71484375 77.828125 C44.14894531 78.21484375 43.58304687 78.6015625 43 79 C42.44828125 78.67257813 41.8965625 78.34515625 41.328125 78.0078125 C38.61219077 76.83212285 36.69448241 76.79751362 33.75 76.875 C32.85796875 76.89304687 31.9659375 76.91109375 31.046875 76.9296875 C30.37140625 76.95289063 29.6959375 76.97609375 29 77 C29 77.99 29 78.98 29 80 C27.3125 80.6875 27.3125 80.6875 25 81 C21.30509701 79.24492108 18.86154031 76.86154031 16 74 C14.515 73.505 14.515 73.505 13 73 C13 71.68 13 70.36 13 69 C9.4465432 69.6777944 9.4465432 69.6777944 6 70.75 C4 71 4 71 1.8125 69.375 C-0.79386395 67.74970295 -0.79386395 67.74970295 -3.00390625 68.39453125 C-4.54342899 68.93804971 -6.07455015 69.50579557 -7.59765625 70.09375 C-12.85360294 72.07648111 -19.42810267 74.03663206 -25 73 C-27.87414173 69.70319037 -29.28811779 66.33410125 -30.9375 62.3125 C-32.63757824 58.27397422 -34.21054377 57.19389571 -38 55 C-39.25 51.5 -39.25 51.5 -40 48 C-40.495 46.515 -40.495 46.515 -41 45 C-41.99 45 -42.98 45 -44 45 C-46.83452524 42.11878846 -47.33478331 39.96365576 -47.4375 36 C-47.70620037 31.95759752 -47.70620037 31.95759752 -49.875 28.5625 C-50.57625 28.046875 -51.2775 27.53125 -52 27 C-53 26 -54 25 -55 24 C-54.505 22.515 -54.505 22.515 -54 21 C-44.96278689 20.05757182 -36.07448253 19.88842849 -27 20 C-26.57074219 19.07767578 -26.57074219 19.07767578 -26.1328125 18.13671875 C-24.91794354 15.84522454 -23.42275151 14.33116736 -21.55078125 12.55859375 C-19.59811305 10.59608843 -17.85241319 8.48661843 -16.0625 6.375 C-11.44084038 1.17238129 -7.16449562 -2.68668586 0 0 Z M-5.9453125 1.609375 C-12.06689676 4.81278468 -15.79036292 8.90683364 -19.95703125 14.37890625 C-22 17 -22 17 -24.26171875 19.21484375 C-26.23254595 20.82353902 -26.23254595 20.82353902 -26 23 C-33.59 23 -41.18 23 -49 23 C-49.30457758 25.99998503 -49.30457758 25.99998503 -47.55078125 27.88671875 C-45.76421308 30.32131165 -45.53803425 31.84464336 -45.1875 34.8125 C-44.36282026 39.61255899 -42.73966406 41.97251715 -39.3828125 45.40234375 C-37.43687927 47.65061124 -36.90987186 50.20539358 -36 53 C-35.11441406 53.34224609 -35.11441406 53.34224609 -34.2109375 53.69140625 C-30.72306449 55.75578339 -29.51874561 59.07440696 -27.75 62.625 C-27.38648438 63.33140625 -27.02296875 64.0378125 -26.6484375 64.765625 C-25.75519383 66.50509952 -24.87619002 68.25187331 -24 70 C-16.7515055 70.41640288 -10.83085645 69.44166784 -4 67 C-4 66.34 -4 65.68 -4 65 C-5.52834853 63.76431395 -7.05765382 62.52972509 -8.59765625 61.30859375 C-10.34023014 59.68251505 -10.82474344 58.36596356 -11 56 C-6.23996903 55.28150476 -1.80992866 55 3 55 C3.495 58.465 3.495 58.465 4 62 C2.02 62.495 2.02 62.495 0 63 C0.495 64.98 0.495 64.98 1 67 C3.39719432 67.67958603 3.39719432 67.67958603 6 68 C6.66 67.34 7.32 66.68 8 66 C10.875 65.5 10.875 65.5 14 66 C16.0625 68.6875 16.0625 68.6875 18 72 C20.37500791 74.87640616 20.37500791 74.87640616 23 77 C27.04622502 77.36980013 27.04622502 77.36980013 30 75 C32.12109375 74.515625 32.12109375 74.515625 34.4375 74.25 C35.19933594 74.15203125 35.96117187 74.0540625 36.74609375 73.953125 C39.33097489 74.00688336 40.79640849 74.69491163 43 76 C44.98 74.35 46.96 72.7 49 71 C46.42215154 68.35247996 44.08351902 66.05567935 41 64 C40.80637696 61.9669581 40.61430333 59.93367492 40.4453125 57.8984375 C40.14558837 55.68971022 40.14558837 55.68971022 37.5 54.1875 C36.675 53.795625 35.85 53.40375 35 53 C33.95550089 49.86650268 34.06576355 49.01031744 35 46 C34.34 46 33.68 46 33 46 C32.67 46.99 32.34 47.98 32 49 C26.25 50 26.25 50 24 50 C23.7525 49.030625 23.505 48.06125 23.25 47.0625 C22.8375 46.051875 22.425 45.04125 22 44 C19.96756452 43.03122943 19.96756452 43.03122943 18 43 C17.505 39.04 17.505 39.04 17 35 C17.99 34.34 18.98 33.68 20 33 C19.28254644 30.53770003 19.28254644 30.53770003 18 28 C17.38125 27.71125 16.7625 27.4225 16.125 27.125 C12.73477038 25.33017255 11.74144665 22.35850425 10 19 C9.34 19 8.68 19 8 19 C7.85304688 18.443125 7.70609375 17.88625 7.5546875 17.3125 C5.81043153 11.37801992 3.36845883 6.45946839 -1 2 C-3.81937171 0.73501065 -3.81937171 0.73501065 -5.9453125 1.609375 Z M0 56 C-0.33 57.32 -0.66 58.64 -1 60 C-0.34 60 0.32 60 1 60 C1.33 59.01 1.66 58.02 2 57 C1.34 56.67 0.68 56.34 0 56 Z"/>
    <path transform="translate(542.9609375,234.8671875)" d="M0 0 C0.79664063 0.00257813 1.59328125 0.00515625 2.4140625 0.0078125 C3.20554687 0.00523437 3.99703125 0.00265625 4.8125 0 C7.0390625 0.1328125 7.0390625 0.1328125 10.0390625 1.1328125 C10.3690625 1.7928125 10.6990625 2.4528125 11.0390625 3.1328125 C13.3608958 3.69807247 13.3608958 3.69807247 16.17578125 3.984375 C17.22830078 4.11328125 18.28082031 4.2421875 19.36523438 4.375 C21.0290918 4.56449219 21.0290918 4.56449219 22.7265625 4.7578125 C23.81646484 4.891875 24.90636719 5.0259375 26.02929688 5.1640625 C31.07177713 5.76560001 35.95462907 6.20341002 41.0390625 6.1328125 C41.2659375 5.4934375 41.4928125 4.8540625 41.7265625 4.1953125 C43.0390625 2.1328125 43.0390625 2.1328125 45.6640625 1.3828125 C46.4478125 1.3003125 47.2315625 1.2178125 48.0390625 1.1328125 C48.5546875 2.2465625 49.0703125 3.3603125 49.6015625 4.5078125 C50.84439197 6.72875325 51.56777126 7.89767148 53.86328125 9.04296875 C55.99135838 9.65874653 55.99135838 9.65874653 59.0390625 10.1328125 C59.0390625 9.4728125 59.0390625 8.8128125 59.0390625 8.1328125 C59.5546875 8.2978125 60.0703125 8.4628125 60.6015625 8.6328125 C64.94849284 9.52449052 69.10517356 9.26865089 73.4765625 8.6328125 C79.74790641 7.75262388 85.04302807 7.73439873 91.0390625 10.1328125 C90.3647478 17.47535039 86.29807286 21.29751388 81.0390625 26.1328125 C76.43496194 29.29232371 71.42683672 30.75945829 66.0390625 32.1328125 C64.5540625 32.6278125 64.5540625 32.6278125 63.0390625 33.1328125 C56.63314778 33.70918015 51.59055383 31.89134938 45.6640625 29.7578125 C33.61107469 24.93638977 33.61107469 24.93638977 21.0390625 25.1328125 C18.81030496 25.17551923 16.58035828 25.17347468 14.3515625 25.1328125 C10.03462468 24.8999792 10.03462468 24.8999792 6.0390625 26.1328125 C-0.00008885 26.60755383 -5.25152901 26.11869371 -10.9609375 24.1328125 C-10.24360815 18.10724592 -8.7688006 13.77632441 -4.2109375 9.6328125 C-3.0971875 8.3953125 -3.0971875 8.3953125 -1.9609375 7.1328125 C-2.10443097 3.93326296 -2.10443097 3.93326296 -2.9609375 1.1328125 C-1.9609375 0.1328125 -1.9609375 0.1328125 0 0 Z M2.0390625 3.1328125 C1.4821875 4.3290625 0.9253125 5.5253125 0.3515625 6.7578125 C-1.05099663 9.58788732 -2.50024377 11.94992468 -4.5859375 14.3203125 C-6.79105712 16.93163837 -7.92005724 18.91554624 -8.9609375 22.1328125 C-7.42248795 22.50070261 -5.87993362 22.85144316 -4.3359375 23.1953125 C-3.47742188 23.39253906 -2.61890625 23.58976562 -1.734375 23.79296875 C1.44383827 24.18241178 3.89462362 23.71755421 7.0390625 23.1328125 C10.45703083 22.88915535 13.8709721 22.69687386 17.29296875 22.52734375 C21.29747401 22.31717474 21.29747401 22.31717474 25.21875 21.5390625 C29.66193307 20.54745083 33.92795937 22.79625978 37.9765625 24.4453125 C52.73322783 30.7209776 52.73322783 30.7209776 68.0390625 29.1328125 C68.72484375 28.92140625 69.410625 28.71 70.1171875 28.4921875 C75.12067953 26.84981989 78.99809829 24.51402745 83.0390625 21.1328125 C83.20535156 20.44058594 83.37164063 19.74835938 83.54296875 19.03515625 C83.70667969 18.40738281 83.87039063 17.77960938 84.0390625 17.1328125 C85.0290625 16.8028125 86.0190625 16.4728125 87.0390625 16.1328125 C87.77230046 14.11772892 87.77230046 14.11772892 88.0390625 12.1328125 C86.7190625 12.4628125 85.3990625 12.7928125 84.0390625 13.1328125 C83.5440625 11.6478125 83.5440625 11.6478125 83.0390625 10.1328125 C75.01177489 10.70561805 75.01177489 10.70561805 67.0390625 11.7578125 C64.19642147 12.11314263 62.72382732 11.87343728 60.0390625 11.1328125 C59.4203125 11.3184375 58.8015625 11.5040625 58.1640625 11.6953125 C54.8930534 12.36875555 53.00599408 11.58471519 50.0390625 10.1328125 C48.1640625 7.0078125 48.1640625 7.0078125 47.0390625 4.1328125 C46.0490625 4.4628125 45.0590625 4.7928125 44.0390625 5.1328125 C44.0390625 6.4528125 44.0390625 7.7728125 44.0390625 9.1328125 C36.14674123 8.45629977 28.27889792 7.63851232 20.4140625 6.6953125 C18.78404297 6.51258789 18.78404297 6.51258789 17.12109375 6.32617188 C15.57615234 6.13958008 15.57615234 6.13958008 14 5.94921875 C12.60467041 5.78595093 12.60467041 5.78595093 11.18115234 5.61938477 C10.12081787 5.37853149 10.12081787 5.37853149 9.0390625 5.1328125 C8.7090625 4.4728125 8.3790625 3.8128125 8.0390625 3.1328125 C6.0590625 3.1328125 4.0790625 3.1328125 2.0390625 3.1328125 Z"/>
    <path transform="translate(660.64453125,272.78125)" d="M0 0 C0.44730469 0.4021875 0.89460937 0.804375 1.35546875 1.21875 C1.35546875 1.87875 1.35546875 2.53875 1.35546875 3.21875 C2.01546875 3.21875 2.67546875 3.21875 3.35546875 3.21875 C6.35546875 8.84375 6.35546875 8.84375 6.35546875 12.21875 C7.01546875 12.21875 7.67546875 12.21875 8.35546875 12.21875 C11.35546875 16.60336538 11.35546875 16.60336538 11.35546875 19.21875 C13.42201576 18.64992008 15.48359341 18.06302035 17.54296875 17.46875 C19.26580078 16.98148437 19.26580078 16.98148437 21.0234375 16.484375 C24.46286914 15.17795548 26.57585947 13.58427365 29.35546875 11.21875 C34.88930247 9.0260989 38.64528149 9.20565226 44.35546875 10.21875 C45.68578125 10.3425 45.68578125 10.3425 47.04296875 10.46875 C49.67221515 11.32147856 50.98008259 12.60836615 52.83984375 14.609375 C54.77533061 16.6645827 56.79198908 18.60442461 58.85546875 20.53125 C59.58765625 21.22863281 60.31984375 21.92601562 61.07421875 22.64453125 C63.74572632 24.48805446 65.17761146 24.54884433 68.35546875 24.21875 C69.34546875 27.18875 69.34546875 27.18875 70.35546875 30.21875 C71.37640625 29.8475 71.37640625 29.8475 72.41796875 29.46875 C75.94246313 29.16879303 77.59632119 30.24724436 80.5234375 32.109375 C82.59236253 33.42792034 82.59236253 33.42792034 86.04296875 34.71875 C89.4011045 36.23941525 91.25753194 37.19772099 93.35546875 40.21875 C93.92373638 45.23844737 93.25827378 49.54822856 91.35546875 54.21875 C89.36072765 56.12282105 87.5524149 57.61954099 85.35546875 59.21875 C84.38609375 60.105625 83.41671875 60.9925 82.41796875 61.90625 C79.07179497 64.43295265 76.37627884 65.17631775 72.35546875 66.21875 C71.73671875 66.755 71.11796875 67.29125 70.48046875 67.84375 C67.05174762 70.06233426 63.3285067 69.58247883 59.35546875 69.21875 C58.73929688 68.97898437 58.123125 68.73921875 57.48828125 68.4921875 C54.07798235 68.05496969 51.60413016 69.96072242 48.73046875 71.59375 C43.62341272 74.3447811 39.29412273 76.0008434 33.44140625 76.05078125 C31.28135597 76.08205437 31.28135597 76.08205437 29.34765625 77.31640625 C27.35546875 78.21875 27.35546875 78.21875 25.21484375 77.7578125 C24.51875 77.45617187 23.82265625 77.15453125 23.10546875 76.84375 C22.3990625 76.54726563 21.69265625 76.25078125 20.96484375 75.9453125 C20.43375 75.70554687 19.90265625 75.46578125 19.35546875 75.21875 C19.35546875 74.55875 19.35546875 73.89875 19.35546875 73.21875 C18.03546875 72.88875 16.71546875 72.55875 15.35546875 72.21875 C14.99144506 70.78371445 14.63960284 69.34558494 14.29296875 67.90625 C13.99712891 66.70548828 13.99712891 66.70548828 13.6953125 65.48046875 C13.35546875 63.21875 13.35546875 63.21875 14.35546875 60.21875 C14.04717946 57.36347255 13.65865869 54.60449499 13.16796875 51.78125 C13.05388672 51.01748047 12.93980469 50.25371094 12.82226562 49.46679688 C12.03240932 44.85997002 11.21320946 42.21389031 7.35546875 39.21875 C5.37546875 40.53875 3.39546875 41.85875 1.35546875 43.21875 C-0.62799462 42.23142601 -2.60703102 41.23818332 -4.57421875 40.21875 C-7.6683681 38.62818327 -10.36591012 37.28561907 -13.76953125 36.46875 C-17.52890216 34.83424091 -18.98609165 32.52802049 -21.25 29.19140625 C-22.56060449 27.19605839 -22.56060449 27.19605839 -24.2421875 25.7265625 C-27.29715154 22.44183794 -27.60630573 17.36320154 -27.68359375 13.02734375 C-27.30049095 8.22031576 -25.90640492 5.66183887 -22.64453125 2.21875 C-21.88140625 1.166875 -21.11828125 0.115 -20.33203125 -0.96875 C-13.12720295 -8.5086866 -7.20132012 -5.03631769 0 0 Z M-17.59375 -0.0390625 C-18.16738281 0.66476562 -18.74101563 1.36859375 -19.33203125 2.09375 C-19.91339844 2.79242188 -20.49476563 3.49109375 -21.09375 4.2109375 C-25.04703317 9.32929405 -25.09874945 12.37693109 -24.50390625 18.71484375 C-22.82591548 25.55646975 -18.21032813 30.78666119 -12.4453125 34.71875 C-10.53709059 35.70739069 -8.66754058 36.50004932 -6.64453125 37.21875 C-5.28328125 37.8065625 -5.28328125 37.8065625 -3.89453125 38.40625 C-3.15203125 38.674375 -2.40953125 38.9425 -1.64453125 39.21875 C-0.94328125 39.486875 -0.24203125 39.755 0.48046875 40.03125 C1.40859375 40.1240625 1.40859375 40.1240625 2.35546875 40.21875 C2.82984375 39.72375 3.30421875 39.22875 3.79296875 38.71875 C4.30859375 38.22375 4.82421875 37.72875 5.35546875 37.21875 C8.33733695 37.2932967 9.79687006 37.65170902 11.90625 39.79296875 C13.83955241 43.02903558 14.41999925 46.30582548 15.04296875 49.96875 C15.17251953 50.64679688 15.30207031 51.32484375 15.43554688 52.0234375 C16.29722406 56.81965127 16.43915675 61.34915442 16.35546875 66.21875 C16.53919663 68.56356046 16.53919663 68.56356046 17.35546875 70.21875 C18.34546875 70.54875 19.33546875 70.87875 20.35546875 71.21875 C21.34546875 72.70375 21.34546875 72.70375 22.35546875 74.21875 C26.55445874 74.5356549 30.27043926 74.13788164 34.35546875 73.21875 C35.42796875 73.115625 36.50046875 73.0125 37.60546875 72.90625 C43.37068027 71.84929455 48.35572272 69.42692989 53.35546875 66.40625 C57.02144317 64.95513512 59.39120383 65.30935522 63.20703125 65.9921875 C70.8027952 66.79319533 79.52088687 61.08048844 85.41796875 56.84375 C89.23238119 53.69805388 90.80462919 51.26811261 91.35546875 46.21875 C91.53344264 43.03430347 91.53344264 43.03430347 90.35546875 40.21875 C85.16705244 35.89506974 78.99343165 33.32507715 72.35546875 32.21875 C70.87046875 31.72375 70.87046875 31.72375 69.35546875 31.21875 C68.95328125 30.22875 68.95328125 30.22875 68.54296875 29.21875 C67.95515625 28.22875 67.95515625 28.22875 67.35546875 27.21875 C65.96328125 27.0021875 65.96328125 27.0021875 64.54296875 26.78125 C60.38582583 26.04763654 59.15211268 24.30222921 56.35546875 21.21875 C55.48921875 20.538125 54.62296875 19.8575 53.73046875 19.15625 C51.35546875 17.21875 51.35546875 17.21875 50.1328125 15.15625 C47.52041218 12.30844658 45.33177767 12.5112416 41.54296875 12.28125 C40.34027344 12.18972656 39.13757813 12.09820312 37.8984375 12.00390625 C33.96202409 12.24260828 31.73052673 13.24110142 28.35546875 15.21875 C22.81911169 18.17147376 16.72923074 21.21875 10.35546875 21.21875 C9.86046875 19.73375 9.86046875 19.73375 9.35546875 18.21875 C8.69546875 18.21875 8.03546875 18.21875 7.35546875 18.21875 C7.02546875 16.89875 6.69546875 15.57875 6.35546875 14.21875 C5.69546875 14.21875 5.03546875 14.21875 4.35546875 14.21875 C4.23171875 13.661875 4.10796875 13.105 3.98046875 12.53125 C3.2957002 9.99760636 2.36413112 7.63953968 1.35546875 5.21875 C0.69546875 5.21875 0.03546875 5.21875 -0.64453125 5.21875 C-0.85078125 4.64125 -1.05703125 4.06375 -1.26953125 3.46875 C-3.16078347 0.37397364 -5.54489062 -0.9731263 -8.64453125 -2.78125 C-12.27404917 -2.78125 -14.82403962 -2.51459523 -17.59375 -0.0390625 Z"/>
    <path transform="translate(588,286)" d="M0 0 C1.37675054 -0.07767659 2.7521243 -0.18331797 4.125 -0.3125 C9.97932863 -0.41965077 14.52668163 2.39519647 19 6 C19 6.66 19 7.32 19 8 C19.556875 8.20625 20.11375 8.4125 20.6875 8.625 C24.38778034 10.82516669 27.0683436 14.1366872 29 18 C29.12941722 22.70524047 28.69444934 26.08729515 25.8125 29.875 C19.66050702 34.52317248 14.0529076 36.11125835 6.4375 36.3125 C5.04337891 36.36857422 5.04337891 36.36857422 3.62109375 36.42578125 C1 36 1 36 -1.296875 34.42578125 C-3.57601858 31.17956987 -3.56832782 28.81179131 -3.6875 24.875 C-3.67574834 20.27286364 -3.67574834 20.27286364 -5 16 C-7.32671865 14.98470459 -9.6603447 13.98511802 -12 13 C-14 11 -14 11 -14.125 7.375 C-14.08375 6.26125 -14.0425 5.1475 -14 4 C-4.94432071 -1.29671807 -4.94432071 -1.29671807 0 0 Z M-12 6 C-12.12815365 8.3852733 -12.12815365 8.3852733 -11 11 C-9.02890854 12.19998315 -7.05614334 13.06500344 -4.91015625 13.91015625 C-2.45346434 15.31182709 -1.89172004 16.32953315 -1 19 C-0.9051173 21.80522768 -1.06488715 24.54238647 -1.22265625 27.34375 C-0.94901287 30.60826754 -0.49523659 31.85905664 2 34 C5.26610801 34.37980288 5.26610801 34.37980288 8.875 33.9375 C10.08929687 33.84339844 11.30359375 33.74929688 12.5546875 33.65234375 C18.40354025 32.54490791 22.2117616 29.52484031 26 25 C27.42437752 22.20518191 27.42437752 22.20518191 27 19 C23.18986288 11.87918194 16.71483554 5.53091008 9 3 C0.98966425 1.65547556 -5.41112313 0.82302532 -12 6 Z"/>
    <path transform="translate(658,343)" d="M0 0 C2.4375 1.5625 2.4375 1.5625 4 4 C3.75 7.75 3.75 7.75 3 11 C3.66 11.33 4.32 11.66 5 12 C4.67 13.65 4.34 15.3 4 17 C3.2575 17.144375 2.515 17.28875 1.75 17.4375 C-0.87154806 17.9309532 -0.87154806 17.9309532 -2.875 18.5625 C-5.91496096 19.18837432 -8.89903532 19 -12 19 C-13.37664414 19.24078187 -14.75168859 19.49088464 -16.125 19.75 C-20 20 -20 20 -23 18.0625 C-23.66 17.381875 -24.32 16.70125 -25 16 C-24.5235009 11.71150812 -22.27412061 9.6335318 -19 7 C-15.1875 6.1875 -15.1875 6.1875 -12 6 C-11.67 5.01 -11.34 4.02 -11 3 C-7.34369716 0.17942352 -4.58770359 -0.683275 0 0 Z M-10 5 C-10.99 6.485 -10.99 6.485 -12 8 C-14.33333333 8.66666667 -16.66666667 9.33333333 -19 10 C-21.26802406 12.69990757 -21.26802406 12.69990757 -20.75 15.125 C-20.16263073 17.1955029 -20.16263073 17.1955029 -18 18 C-17.4225 17.690625 -16.845 17.38125 -16.25 17.0625 C-13.39383489 15.71375537 -11.12024959 15.85817047 -8 16 C-8 15.34 -8 14.68 -8 14 C-7.05125 14.20625 -6.1025 14.4125 -5.125 14.625 C-4.09375 14.74875 -3.0625 14.8725 -2 15 C0.59159438 12.40840562 0.56157739 10.58045135 1 7 C1 6.01 1 5.02 1 4 C-3.64599106 0.90267263 -5.66455653 1.99853914 -10 5 Z"/>
    <path transform="translate(778,400)" d="M0 0 C6.85858006 2.22490131 12.87313692 4.87313692 18 10 C18.495 10.99 18.495 10.99 19 12 C21.52733235 12.65555119 21.52733235 12.65555119 24 13 C24 13.66 24 14.32 24 15 C24.5775 15.144375 25.155 15.28875 25.75 15.4375 C27.83333333 15.95833333 29.91666667 16.47916667 32 17 C32.495 18.98 32.495 18.98 33 21 C33.804375 21.12375 34.60875 21.2475 35.4375 21.375 C36.7059375 21.684375 36.7059375 21.684375 38 22 C38.495 22.99 38.495 22.99 39 24 C40.546875 23.6596875 40.546875 23.6596875 42.125 23.3125 C46.70202345 22.94338521 47.99667778 23.88503732 52 26 C53.90805979 26.49293852 55.8262227 26.94749393 57.75 27.375 C66.27598955 29.39847342 73.34368722 33.62086007 80.91796875 37.87890625 C84.52423837 39.82074374 88.30384328 41.33968807 92.1171875 42.82421875 C97.29721765 44.94821035 101.40322714 47.59395412 105.73046875 51.140625 C108.03698268 53.03029907 110.41573353 54.78944199 112.8125 56.5625 C116.40710552 59.34241119 118.56717607 62.14103791 121 66 C122.02996094 66.65097656 123.05992187 67.30195313 124.12109375 67.97265625 C126.34030108 69.77061426 126.93675291 70.60477423 127.39428711 73.46386719 C127.36584191 76.44164407 127.16322678 79.34869439 126.875 82.3125 C126.80023437 83.33923828 126.72546875 84.36597656 126.6484375 85.42382812 C126.46023523 87.9527961 126.24330054 90.47583632 126 93 C127.1446875 92.27103516 127.1446875 92.27103516 128.3125 91.52734375 C131.57870165 89.67111578 133.29495325 89.45968068 137 90 C141.68985618 92.72666057 143.3831171 95.894054 145 101 C145.02604008 102.41658053 145.00513845 103.83479559 144.9375 105.25 C144.9684375 107.10625 144.9684375 107.10625 145 109 C146.84395635 110.8628419 146.84395635 110.8628419 149 112 C149.33 112.99 149.66 113.98 150 115 C154.58860096 119.49275551 159.77576332 121.81661157 165.72265625 123.98828125 C168.97234745 125.43196911 170.74202768 127.29043321 173 130 C171.44507469 135.91630117 170.26925201 139.48716533 165 143 C164.236875 143.763125 163.47375 144.52625 162.6875 145.3125 C158.6985325 149.3014675 154.5331652 153.25524165 149.87890625 156.4609375 C147.88285689 157.87781119 147.88285689 157.87781119 146.99609375 160.0546875 C145.72995448 162.52738302 144.5710635 163.01319718 142.0625 164.125 C139.48258797 165.29198825 137.38369091 166.41087273 135 168 C133.9275 168.0825 132.855 168.165 131.75 168.25 C127.3580535 169.1283893 125.91397145 170.62093548 122.7421875 173.57421875 C120.05467141 175.77364335 117.36555313 176.30367866 114 177 C113.25234375 177.20625 112.5046875 177.4125 111.734375 177.625 C106.84750411 178.91953534 104.69768515 178.94782067 100 177 C95.21277529 176.88228136 91.2649066 176.95645206 87.5 180.0625 C87.005 180.701875 86.51 181.34125 86 182 C85.34 182 84.68 182 84 182 C83.76023437 182.60585938 83.52046875 183.21171875 83.2734375 183.8359375 C81.71877525 186.47790954 80.33007409 187.23202165 77.625 188.625 C76.85414063 189.02976562 76.08328125 189.43453125 75.2890625 189.8515625 C73.81122419 190.59300356 72.32068581 191.30988393 70.81640625 191.99609375 C68.76443523 192.95461877 68.76443523 192.95461877 67.3125 195.4375 C64.43550724 198.625519 62.00514638 199.19837554 57.92578125 200.2265625 C57.29027344 200.48179687 56.65476562 200.73703125 56 201 C55.67 201.99 55.34 202.98 55 204 C52.5625 206.6875 52.5625 206.6875 50 209 C49.34 209 48.68 209 48 209 C48 211.64 48 214.28 48 217 C47.01 217.33 46.02 217.66 45 218 C44.9175 218.70125 44.835 219.4025 44.75 220.125 C43.81369749 223.71415964 42.29264151 226.10048279 40 229 C39.01 229 38.02 229 37 229 C36.773125 229.7425 36.54625 230.485 36.3125 231.25 C34.70040045 234.62773239 33.14813982 235.99663829 30 238 C26.6875 238.75 26.6875 238.75 24 239 C24.04125 238.113125 24.0825 237.22625 24.125 236.3125 C23.35237348 232.93568797 23.35237348 232.93568797 20.953125 231.62890625 C18.32806308 230.35217159 15.67424627 229.16973658 13 228 C6.25693607 224.51387214 6.25693607 224.51387214 5 222 C3.01099415 221.4605186 3.01099415 221.4605186 0.6875 221.125 C-4.98613053 219.95795574 -6.81790398 217.66884145 -10.125 213 C-17.62204326 201.00473079 -13.30614407 186.3776483 -10.3984375 173.29296875 C-8.86785915 164.48464039 -12.0383496 156.17825133 -15.00415039 148.01879883 C-15.71854094 146.02948934 -16.36511018 144.01609053 -17 142 C-16.67 141.34 -16.34 140.68 -16 140 C-16.78375 139.835 -17.5675 139.67 -18.375 139.5 C-21 138 -21 138 -21.77734375 136.19140625 C-22.56887753 133.042604 -23 130.25688628 -23 127 C-25.08862097 118.64551613 -26.70456159 113.75789462 -34 109 C-34.75 106.5625 -34.75 106.5625 -35 104 C-35.350625 103.278125 -35.70125 102.55625 -36.0625 101.8125 C-37.5281837 97.41544891 -37.98697555 93.56393394 -37 89 C-34.7374545 85.26926517 -31.9379086 82.20799776 -29 79 C-28.1621283 77.79480919 -27.32793967 76.58703539 -26.5 75.375 C-23.75231892 72.76470298 -23.26968286 72.6500941 -19.6875 72.625 C-17.8621875 72.810625 -17.8621875 72.810625 -16 73 C-15.90332031 72.28972656 -15.80664062 71.57945312 -15.70703125 70.84765625 C-14.8855265 67.53894376 -13.54167555 65.29221568 -11.6875 62.4375 C-11.09324219 61.50808594 -10.49898437 60.57867187 -9.88671875 59.62109375 C-7.26561249 55.97976393 -5.31044972 53.43681657 -1 52 C-0.40268555 47.45851394 -0.06146976 43.58692344 -2.453125 39.54296875 C-3.69061381 38.01690587 -4.95525268 36.51245754 -6.24609375 35.03125 C-11.70325193 28.7111559 -12.18015412 21.95185995 -12.1875 13.9375 C-12.19974609 13.23044922 -12.21199219 12.52339844 -12.22460938 11.79492188 C-12.23513988 8.05659137 -12.23059389 5.09022476 -10 2 C-6.4161652 -0.3892232 -4.13117472 -0.71027215 0 0 Z M-9 5 C-11.35656736 12.06970207 -10.62643603 21.04549334 -8 28 C-5.86501778 31.84174451 -3.54750423 35.50816139 -0.37109375 38.5703125 C1.95537851 40.99620665 2.005574 43.15328487 2.125 46.4375 C1.92992701 51.99708029 1.92992701 51.99708029 1 54 C-0.66666667 55 -2.33333333 56 -4 57 C-9.42233831 62.05793386 -12.66800464 68.46598074 -16 75 C-16.93972656 74.95875 -17.87945313 74.9175 -18.84765625 74.875 C-22.11860258 74.6872954 -22.11860258 74.6872954 -24.4375 77 C-25.283125 77.99 -26.12875 78.98 -27 80 C-27.90685547 80.88945312 -27.90685547 80.88945312 -28.83203125 81.796875 C-32.87403401 85.91296743 -34.97802017 89.05461488 -35.21875 94.90234375 C-34.89317165 98.0244076 -33.55538844 100.30798154 -32 103 C-31.3125 106.375 -31.3125 106.375 -31 109 C-30.401875 109.0825 -29.80375 109.165 -29.1875 109.25 C-26.28441103 110.24534479 -25.64436397 111.41967952 -24 114 C-21.53636731 120.49889313 -19.75063057 127.09419876 -19 134 C-18.67 134.99 -18.34 135.98 -18 137 C-15.98491642 137.73323796 -15.98491642 137.73323796 -14 138 C-13.97421875 138.60585938 -13.9484375 139.21171875 -13.921875 139.8359375 C-13.41907907 147.2636046 -11.31489832 153.37020336 -8 160 C-7.87372939 162.51366616 -7.80963696 164.9859674 -7.8125 167.5 C-7.8137085 168.58921753 -7.8137085 168.58921753 -7.81494141 169.70043945 C-7.86893658 174.45783814 -8.3298191 178.8616563 -9.41796875 183.50390625 C-12.68608562 196.78513156 -12.68608562 196.78513156 -9.61328125 209.63671875 C-6.04775099 215.39993643 -6.04775099 215.39993643 -0.3125 218.5625 C0.780625 218.706875 1.87375 218.85125 3 219 C6.91614602 219.67133932 8.20487364 221.20487364 11 224 C13.32152514 225.41870981 15.59845041 226.73957548 18 228 C19.093125 228.5775 20.18625 229.155 21.3125 229.75 C23.8082443 231.14057692 23.8082443 231.14057692 26 231 C26.33 232.32 26.66 233.64 27 235 C28.32 234.67 29.64 234.34 31 234 C31 233.34 31 232.68 31 232 C31.99 231.67 32.98 231.34 34 231 C34.4640625 230.0409375 34.4640625 230.0409375 34.9375 229.0625 C36 227 36 227 37.93359375 226.12109375 C40.47641322 224.74153007 40.98026534 223.61653637 42.125 221 C43.2670302 218.43279162 43.98199302 217.01800698 46 215 C46.144375 213.865625 46.28875 212.73125 46.4375 211.5625 C47.01260182 207.92018846 47.21311273 207.14375944 50 205 C52.29893164 202.87790925 52.97208168 202.08375495 54 199 C56.109375 198.04296875 56.109375 198.04296875 58.75 197.1875 C62.27897297 195.88919886 64.50011271 194.91678841 66.75 191.875 C69.38969404 188.50205762 70.94158632 188.076722 75 187 C79.63709643 185.01267296 82.5805584 182.69669362 86 179 C88.48750072 176.32115307 90.21593393 175.11755474 94.015625 174.8671875 C97.61066882 174.87975758 100.83500754 174.96639042 104.375 175.6875 C113.17042528 176.44572632 119.90972276 172.9181518 126.61328125 167.5234375 C129.44062057 165.71875283 131.70756479 165.50194749 135 165 C140.797545 162.24507636 145.69156182 158.76195798 150 154 C154.06561625 149.73562029 158.10112563 145.84411771 162.875 142.375 C165.7717945 140.18242623 166.93787848 139.12185375 168.625 135.8125 C168.99427348 133.04294888 169.13592948 131.53399654 168 129 C164.98282731 125.27003247 161.02865356 124.53712228 156.59375 123.16015625 C153.67509788 121.8546748 152.82491003 120.54108112 151 118 C150.01 118 149.02 118 148 118 C147.7525 117.195625 147.505 116.39125 147.25 115.5625 C146.63125 114.2940625 146.63125 114.2940625 146 113 C143.96971804 112.30464127 143.96971804 112.30464127 142 112 C142.16048828 111.14728516 142.16048828 111.14728516 142.32421875 110.27734375 C143.38488659 103.44573047 142.32357042 99.20492472 138.1875 93.5 C136.01182148 91.68754999 136.01182148 91.68754999 132.875 92.125 C129.90318627 92.78308824 129.90318627 92.78308824 128 95 C127.01 95 126.02 95 125 95 C123.85799243 88.57620743 122.82001909 81.15205782 124.625 74.80078125 C124.74875 74.20652344 124.8725 73.61226563 125 73 C123.26779181 70.95198863 123.26779181 70.95198863 121.70703125 69.609375 C119.5631958 67.5881846 117.72447231 65.3663885 115.8125 63.125 C112.00935467 58.85123133 108.06817686 55.65078002 103.26171875 52.5703125 C101 51 101 51 99.0078125 48.9140625 C96.74935307 46.76105643 95.15330615 46.14293088 92.1875 45.25 C87.29580806 43.60199683 82.94080209 41.48010406 78.4375 39 C70.27333979 34.52997898 62.14572627 31.20583673 53.1796875 28.6640625 C51 28 51 28 48.3125 26.75 C45.83521309 25.74596528 45.83521309 25.74596528 42.5 26.625 C39 27 39 27 36.3125 25.25 C35.549375 24.5075 34.78625 23.765 34 23 C30.94413436 20.36973131 30.94413436 20.36973131 27 20 C27 19.34 27 18.68 27 18 C24.34771188 16.92474806 21.71631546 15.90543849 19 15 C18.34 15.33 17.68 15.66 17 16 C16.79375 15.0925 16.5875 14.185 16.375 13.25 C14.2543624 8.23758386 11.05825438 6.85270539 6.265625 4.8671875 C-1.74829275 1.45146041 -1.74829275 1.45146041 -9 5 Z"/>
  </g>
</svg>