<svg version="1.0" xmlns="http://www.w3.org/2000/svg" width="540.000000pt" height="360.000000pt" viewBox="0 0 540.000000 360.000000" preserveAspectRatio="xMidYMid meet">
  <g transform="translate(0.000000,360.000000) scale(0.100000,-0.100000)" fill="none" stroke="#000000" stroke-width="80" stroke-linejoin="round" stroke-linecap="round">
    <path d="M1705 2411 c-44 -11 -84 -40 -91 -65 -3 -12 2 -38 11 -58 8 -21 15 -42 15 -48 0 -15 -73 -58 -146 -84 -36 -13 -67 -26 -70 -29 -3 -2 11 -34 31 -71 31 -56 42 -67 73 -76 30 -8 40 -17 55 -52 9 -24 17 -50 17 -59 0 -9 9 -24 20 -34 27 -24 25 -33 -12 -72 -26 -27 -29 -35 -18 -48 10 -12 10 -18 0 -30 -7 -8 -10 -24 -7 -36 4 -13 -2 -32 -16 -50 -15 -21 -18 -32 -10 -40 8 -8 7 -21 -3 -46 -15 -34 -15 -34 16 -46 38 -15 38 -28 -3 -47 -28 -13 -32 -21 -35 -57 -2 -24 1 -43 6 -43 4 0 17 -7 28 -16 10 -8 13 -13 7 -9 -7 3 -13 2 -13 -3 0 -11 30 -25 37 -18 3 2 0 14 -7 25 -16 30 7 36 64 17 59 -20 90 -20 110 0 9 8 16 12 16 7 0 -4 5 0 11 9 11 19 65 22 108 6 16 -6 27 -5 31 3 5 7 19 -1 41 -25 19 -20 43 -38 54 -40 11 -2 27 -6 35 -8 9 -2 14 4 14 15 -2 21 34 32 82 24 18 -3 34 -2 34 2 0 4 14 6 30 3 22 -3 42 3 70 22 40 26 51 46 28 46 -18 1 22 30 40 30 9 0 13 -7 9 -20 -7 -25 7 -34 23 -15 16 19 48 19 69 1 9 -7 31 -18 50 -24 27 -9 37 -9 54 3 32 22 67 19 67 -5 0 -23 4 -24 31 -9 14 7 24 7 33 0 13 -11 46 -4 111 24 17 7 49 16 71 20 37 6 46 3 75 -22 19 -16 54 -39 78 -52 l43 -22 29 30 c38 40 71 48 103 24 14 -10 28 -26 31 -35 4 -10 12 -15 21 -11 8 3 21 0 28 -6 8 -7 26 -14 41 -17 22 -4 26 -2 21 13 -4 13 4 23 30 36 38 18 63 14 45 -7 -6 -7 -7 -17 -3 -21 4 -5 2 -5 -5 -1 -7 4 -17 -2 -22 -13 -16 -30 -13 -36 9 -16 13 12 30 16 57 13 29 -3 54 4 107 29 61 31 72 33 97 23 25 -11 32 -9 60 14 30 25 59 28 82 7 10 -10 125 6 157 21 14 7 34 20 45 29 11 10 36 21 55 26 33 9 35 12 35 49 0 35 3 39 28 44 25 4 31 14 55 85 22 63 38 91 71 124 41 41 46 43 73 33 22 -8 28 -7 28 3 0 20 56 45 69 32 16 -16 55 22 40 39 -6 8 -6 14 0 18 5 4 17 -4 26 -16 15 -21 17 -22 26 -5 6 9 14 15 20 12 14 -9 10 7 -6 29 -8 11 -15 29 -15 39 0 16 -3 17 -14 8 -8 -7 -16 -8 -19 -4 -9 15 -11 58 -3 80 4 12 3 37 -2 55 -7 26 -5 41 9 68 11 20 15 38 10 43 -10 10 -31 1 -31 -14 0 -6 5 -7 10 -4 14 9 12 -7 -3 -30 -9 -14 -13 -48 -12 -106 2 -89 8 -109 28 -109 19 0 37 -35 26 -51 -7 -11 -11 -11 -22 5 -19 25 -48 14 -44 -16 2 -19 -2 -23 -21 -21 -26 3 -82 -23 -82 -38 0 -6 -6 -6 -19 1 -28 14 -26 15 -80 -41 -39 -41 -54 -66 -74 -127 -15 -47 -30 -77 -38 -77 -40 -1 -55 -15 -51 -48 4 -33 0 -37 -58 -61 -22 -10 -56 -30 -73 -44 -19 -16 -144 -25 -152 -12 -12 19 -54 10 -78 -16 -21 -22 -28 -24 -45 -15 -31 16 -46 14 -114 -19 -60 -29 -128 -40 -128 -20 0 6 6 10 12 10 7 0 0 12 -16 28 -19 18 -30 23 -33 15 -3 -7 -14 -13 -24 -13 -11 0 -17 -4 -14 -10 3 -5 -1 -10 -9 -10 -9 0 -16 -7 -16 -15 0 -19 -19 -19 -44 0 -10 8 -23 12 -27 9 -5 -3 -9 2 -9 10 0 9 -5 16 -12 16 -6 0 -22 10 -35 22 -24 22 -24 22 -59 3 -20 -11 -45 -29 -57 -41 -21 -22 -22 -22 -48 -3 -15 10 -31 19 -36 19 -4 0 -24 14 -43 30 -43 37 -76 38 -162 6 -68 -26 -158 -31 -158 -10 0 27 -67 23 -84 -4 -6 -10 -52 3 -95 27 -13 7 -36 10 -53 7 -16 -3 -27 -2 -24 3 3 5 -1 14 -8 21 -11 9 -20 9 -38 -1 -51 -26 -80 -67 -38 -54 34 11 22 -4 -17 -21 -21 -9 -66 -18 -101 -19 -52 -3 -67 0 -83 16 -23 23 -39 24 -39 3 0 -10 6 -14 15 -11 8 4 17 2 20 -3 5 -8 -49 -40 -69 -40 -13 0 -66 47 -66 59 0 4 -29 9 -64 9 -35 1 -68 2 -72 3 -19 5 -64 -14 -64 -26 0 -7 -6 -15 -13 -18 -16 -6 -80 6 -121 22 -23 9 -32 9 -45 -2 -24 -21 -41 -9 -41 28 0 29 4 35 34 45 19 6 37 17 40 25 6 17 -19 45 -40 45 -19 0 -18 29 3 52 15 17 15 20 3 28 -13 8 -12 13 3 39 9 16 17 40 17 52 1 66 7 89 28 111 25 28 29 66 7 74 -8 4 -15 16 -15 28 0 12 -6 30 -14 41 -7 11 -16 32 -20 47 -5 21 -15 30 -45 38 -32 8 -44 20 -73 70 l-36 59 62 21 c33 11 82 34 109 50 52 33 59 57 32 111 -19 36 -8 62 38 86 41 21 189 20 244 -2 55 -22 184 -42 215 -34 42 11 210 8 233 -4 23 -12 115 -27 115 -17 0 18 95 31 177 25 144 -10 182 -15 209 -25 39 -15 73 -12 101 9 21 17 35 19 106 14 45 -3 93 -10 107 -17 22 -11 66 -13 95 -5 6 1 28 -3 50 -9 22 -7 57 -12 78 -12 20 0 37 -4 37 -9 0 -17 40 -23 56 -10 13 11 18 10 25 -4 6 -9 16 -17 24 -17 8 0 18 -8 23 -17 9 -16 12 -15 38 2 l28 18 -22 15 c-33 21 -27 35 8 17 16 -8 37 -15 46 -15 10 0 33 -6 52 -12 28 -11 38 -10 61 3 20 12 34 13 52 6 13 -5 51 -10 84 -12 79 -5 163 -30 191 -56 12 -12 27 -18 33 -14 6 3 11 2 11 -4 0 -6 6 -8 14 -5 8 3 33 -8 57 -25 29 -21 46 -28 53 -21 7 7 17 4 30 -9 30 -27 99 -37 116 -16 10 12 15 13 21 3 4 -7 11 -9 15 -5 4 4 2 13 -4 19 -9 9 -16 8 -30 -5 -10 -9 -27 -14 -37 -12 -11 2 -32 6 -47 9 -15 4 -30 15 -33 26 -5 16 -10 18 -26 9 -24 -13 -69 12 -69 37 0 12 -6 15 -25 10 -20 -5 -23 -3 -18 11 5 15 3 16 -8 6 -19 -19 -42 -16 -62 7 -9 11 -27 20 -40 20 -12 0 -40 9 -61 20 -25 12 -44 16 -54 11 -9 -5 -40 -3 -76 6 -55 13 -64 12 -88 -2 -25 -14 -32 -14 -73 0 -25 8 -54 15 -63 15 -10 0 -23 5 -29 11 -6 6 -26 9 -44 7 l-34 -3 38 -26 c27 -19 35 -29 26 -35 -7 -4 -14 -3 -17 4 -2 7 -12 12 -22 12 -11 0 -24 9 -30 20 -9 17 -14 18 -36 8 -20 -9 -30 -9 -47 2 -24 15 -109 30 -197 33 -30 2 -66 6 -80 9 -91 25 -188 23 -217 -4 -20 -19 -25 -19 -75 -8 -74 18 -94 21 -163 24 -33 1 -69 6 -81 9 -17 6 -57 1 -131 -16 -7 -2 -16 -6 -19 -10 -13 -13 -71 -7 -115 12 -40 17 -55 18 -159 10 -123 -10 -229 1 -284 29 -34 16 -176 25 -221 13z"/>
    <path d="M1023 2158 c2 -7 10 -13 17 -13 7 0 15 6 18 13 2 7 -5 12 -18 12 -13 0 -20 -5 -17 -12z"/>
    <path d="M1360 2136 c0 -2 8 -10 18 -17 15 -13 16 -12 3 4 -13 16 -21 21 -21 13z"/>
    <path d="M4999 2066 c14 -23 16 -37 9 -44 -12 -12 -4 -42 12 -42 5 0 10 7 10 16 0 8 -4 12 -10 9 -6 -3 -7 1 -4 10 5 12 14 7 41 -25 37 -42 53 -50 53 -24 0 8 -4 13 -9 10 -6 -4 -81 68 -81 78 0 2 21 1 48 -1 55 -5 94 -26 86 -48 -8 -19 -28 -19 -44 0 -14 17 -40 20 -40 5 0 -5 6 -9 13 -7 6 1 11 -4 9 -11 -1 -8 2 -11 8 -7 5 3 17 2 26 -3 12 -7 22 -4 37 11 l20 20 -31 27 c-26 21 -41 26 -77 25 -32 -2 -49 3 -61 16 -27 30 -35 22 -15 -15z"/>
    <path d="M5130 2071 c0 -5 9 -11 20 -14 13 -3 20 0 20 9 0 8 -9 14 -20 14 -11 0 -20 -4 -20 -9z"/>
    <path d="M5190 2025 c7 -8 16 -15 21 -15 5 0 9 7 9 15 0 9 -9 15 -21 15 -18 0 -19 -2 -9 -15z"/>
    <path d="M4525 1900 c3 -5 13 -10 21 -10 8 0 14 5 14 10 0 6 -9 10 -21 10 -11 0 -17 -4 -14 -10z"/>
    <path d="M4802 1715 c-8 -13 -148 -55 -209 -62 -40 -5 -43 -7 -37 -32 4 -14 11 -32 16 -38 17 -22 73 -26 106 -9 30 16 102 18 102 4 0 -4 6 -5 13 -2 15 6 19 64 4 64 -5 0 -7 -11 -5 -25 3 -16 1 -22 -6 -18 -16 10 -87 3 -117 -12 -41 -22 -99 -1 -99 36 0 14 7 19 26 19 30 0 207 51 215 62 12 17 95 20 139 4 25 -9 61 -16 80 -17 22 -1 27 -3 15 -6 -11 -3 -25 -13 -31 -22 -11 -14 -14 -14 -33 3 -20 18 -21 18 -40 -5 -28 -33 -26 -47 3 -20 22 21 24 21 41 5 17 -17 18 -17 35 4 16 19 24 21 64 16 31 -5 46 -3 46 4 0 18 -32 30 -91 35 -30 3 -67 10 -83 16 -37 15 -144 12 -154 -4z m308 -41 c0 -2 -9 -4 -21 -4 -11 0 -18 4 -14 10 5 8 35 3 35 -6z"/>
    <path d="M325 1651 c-5 -9 -21 -11 -49 -7 -24 4 -50 4 -59 0 -14 -5 -44 -71 -35 -79 26 -23 86 -55 106 -55 26 0 92 61 92 85 0 8 -11 26 -23 41 -17 20 -26 24 -32 15z m23 -23 c21 -21 13 -55 -19 -82 -38 -32 -42 -32 -95 -1 -41 24 -42 26 -31 54 10 28 16 30 67 34 30 2 57 4 61 5 3 1 10 -3 17 -10z"/>
    <path d="M4900 1645 c0 -10 -10 -15 -32 -15 -39 0 -66 -14 -49 -24 6 -4 11 -2 11 3 0 6 18 11 40 11 22 0 40 2 40 4 0 2 3 11 6 20 3 9 1 16 -5 16 -6 0 -11 -7 -11 -15z"/>
    <path d="M4575 1541 c-3 -5 -2 -12 3 -15 5 -3 9 1 9 9 0 17 -3 19 -12 6z"/>
    <path d="M4135 1459 c-4 -6 -5 -12 -2 -15 2 -3 7 2 10 11 7 17 1 20 -8 4z"/>
    <path d="M3500 1356 c0 -2 8 -10 18 -17 15 -13 16 -12 3 4 -13 16 -21 21 -21 13z"/>
    <path d="M2493 1305 c0 -8 4 -12 9 -9 5 3 6 10 3 15 -9 13 -12 11 -12 -6z"/>
    <path d="M2812 1218 c-7 -7 -12 -19 -12 -27 0 -11 4 -10 20 4 21 19 26 35 12 35 -4 0 -13 -5 -20 -12z"/>
  </g>
</svg>