<svg version="1.1" xmlns="http://www.w3.org/2000/svg" width="311" height="248">
<path d="M0 0 C3.11396946 0.21475651 4.06926877 1.06926877 6.3125 3.3125 C8 6 8 6 7.75 8.3125 C7.5025 8.869375 7.255 9.42625 7 10 C1.55122777 9.51566469 1.55122777 9.51566469 -0.9375 7.1875 C-2 5 -2 5 -1.75 2.8125 C-1 1 -1 1 0 0 Z M0 2 C0.10613836 4.45224694 0.10613836 4.45224694 1 7 C3.47636012 8.37466625 3.47636012 8.37466625 6 9 C6 5.47190093 5.35723489 4.53184488 3 2 C2.01 2 1.02 2 0 2 Z " fill="none" stroke="#000000" stroke-width="4" transform="translate(101,10)"/>
<path d="M0 0 C4.7504701 1.15162911 7.5463781 4.00915517 10.6171875 7.625 C12.94895518 11.62984393 12.57836699 15.51995093 12 20 C9 21 9 21 7.02734375 20.13671875 C2.80443336 17.208308 0.54328829 15.06712902 -0.5625 9.9375 C-1.10993289 6.36507709 -0.84450847 3.50940187 0 0 Z M0 2 C0.47836152 10.48231624 0.47836152 10.48231624 4.9375 17.25 C7.84624861 19.24806947 7.84624861 19.24806947 11 19 C11.64228542 14.58428773 11.82924313 12.25449601 9.32421875 8.46484375 C7.30447952 6.13494347 5.3784334 3.96459508 3 2 C2.01 2 1.02 2 0 2 Z " fill="none" stroke="#000000" stroke-width="4" transform="translate(96,17)"/>
<path d="M0 0 C1.20462891 0.40798828 1.20462891 0.40798828 2.43359375 0.82421875 C3.23925781 1.08847656 4.04492188 1.35273437 4.875 1.625 C6.87109375 2.51171875 6.87109375 2.51171875 7.87109375 4.51171875 C6.96359375 4.18171875 6.05609375 3.85171875 5.12109375 3.51171875 C1.80063568 2.31566152 1.80063568 2.31566152 -2.12890625 2.51171875 C-1.04609375 3.41664062 -1.04609375 3.41664062 0.05859375 4.33984375 C1.45078125 5.53867187 1.45078125 5.53867187 2.87109375 6.76171875 C4.26328125 7.94507813 4.26328125 7.94507813 5.68359375 9.15234375 C7.87109375 11.51171875 7.87109375 11.51171875 7.87109375 15.51171875 C4.99609375 16.13671875 4.99609375 16.13671875 1.87109375 16.51171875 C1.21109375 15.85171875 0.55109375 15.19171875 -0.12890625 14.51171875 C1.85109375 14.18171875 3.83109375 13.85171875 5.87109375 13.51171875 C3.68175113 10.56452676 1.5047136 8.13484892 -1.37890625 5.88671875 C-2.74015625 4.71109375 -2.74015625 4.71109375 -4.12890625 3.51171875 C-4.12890625 2.52171875 -4.12890625 1.53171875 -4.12890625 0.51171875 C-2.12890625 -0.48828125 -2.12890625 -0.48828125 0 0 Z " fill="none" stroke="#000000" stroke-width="4" transform="translate(78.12890625,31.48828125)"/>
<path d="M0 0 C5.16774034 0.58345455 7.44902502 2.67231958 10.875 6.4375 C12.36823628 8.3874909 13.61530753 10.32121665 14.875 12.4375 C11.67223728 11.07272531 10.09177576 9.67621927 8.0625 6.875 C5.59475688 3.83292281 5.06008039 3.48227751 1 2.5 C-0.546875 2.4690625 -0.546875 2.4690625 -2.125 2.4375 C-2.785 4.0875 -3.445 5.7375 -4.125 7.4375 C-5.32125 7.293125 -6.5175 7.14875 -7.75 7 C-8.48089844 6.91234375 -9.21179687 6.8246875 -9.96484375 6.734375 C-11.76046604 6.4875987 -13.54074265 6.13214374 -15.3125 5.75 C-18.67204652 5.37671705 -20.03892592 6.1048771 -23.125 7.4375 C-24.74503859 7.77477766 -26.3709024 8.08461704 -28 8.375 C-31.26946509 8.97342888 -34.01595944 9.72763533 -37 11.1875 C-40.125 12.4375 -40.125 12.4375 -42.5625 11.625 C-43.078125 11.233125 -43.59375 10.84125 -44.125 10.4375 C-42.125 9.4375 -42.125 9.4375 -38.6875 9 C-35.03157855 8.67721164 -35.03157855 8.67721164 -32.125 6.4375 C-30.28427975 6.01903017 -28.42692753 5.6704286 -26.5625 5.375 C-22.71553568 4.80420096 -22.71553568 4.80420096 -19.125 3.4375 C-13.74911642 2.92551109 -10.01170402 4.41541558 -5.125 6.4375 C-4.980625 5.633125 -4.83625 4.82875 -4.6875 4 C-3.8793724 0.31852983 -3.84758418 0.53866179 0 0 Z " fill="none" stroke="#000000" stroke-width="4" transform="translate(63.125,33.5625)"/>
<path d="M0 0 C0.99 0.33 1.98 0.66 3 1 C2.01 1.495 2.01 1.495 1 2 C0.525625 2.845625 0.05125 3.69125 -0.4375 4.5625 C-0.953125 5.366875 -1.46875 6.17125 -2 7 C-2.99 7 -3.98 7 -5 7 C-5 7.99 -5 8.98 -5 10 C-3.02 10 -1.04 10 1 10 C1 10.66 1 11.32 1 12 C-1.875 12.125 -1.875 12.125 -5 12 C-5.66 11.34 -6.32 10.68 -7 10 C-6.875 8 -6.875 8 -6 6 C-4.67532254 5.3162955 -3.34136367 4.65035814 -2 4 C-0.73195434 1.9664052 -0.73195434 1.9664052 0 0 Z " fill="none" stroke="#000000" stroke-width="4" transform="translate(16,42)"/>
<path d="M0 0 C2.3914198 1.11435232 3.90126398 1.89029332 5.6875 3.875 C8.52849803 6.48564684 11.39000028 7.54046522 14.9765625 8.875 C17.41790158 10.23234682 18.00683569 11.43699532 19 14 C19.928125 13.938125 20.85625 13.87625 21.8125 13.8125 C25.50121492 14.02948323 25.64093256 14.44434361 28 17 C31.10007201 18.20049407 31.10007201 18.20049407 34 19 C33.67 19.66 33.34 20.32 33 21 C26.36170213 18.19148936 26.36170213 18.19148936 23.875 16.875 C21.94090693 15.86187885 21.94090693 15.86187885 19.375 15.625 C18.59125 15.41875 17.8075 15.2125 17 15 C16.56300781 14.04673828 16.56300781 14.04673828 16.1171875 13.07421875 C14.68339293 10.41217359 13.56361262 10.15886626 10.75 9.1875 C5.77059452 7.18447582 3.08485063 4.30669344 0 0 Z " fill="none" stroke="#000000" stroke-width="4" transform="translate(93,43)"/>
<path d="M0 0 C-0.61875 0.268125 -1.2375 0.53625 -1.875 0.8125 C-4.2995233 1.95556848 -4.2995233 1.95556848 -6 5 C-2.74772612 6.74512257 0.17023056 8.04539482 3.75 9 C7 10 7 10 9 13 C-2.7460495 9.72689134 -2.7460495 9.72689134 -7 7 C-8.0625 5 -8.0625 5 -8 3 C-5.85915306 -0.33020635 -3.75910189 -0.30479204 0 0 Z " fill="none" stroke="#000000" stroke-width="4" transform="translate(122,44)"/>
<path d="M0 0 C1.98 1.65 3.96 3.3 6 5 C5.6875 6.875 5.6875 6.875 5 9 C2 11 2 11 -0.1875 10.625 C-0.785625 10.41875 -1.38375 10.2125 -2 10 C-2 9.67 -2 9.34 -2 9 C-0.35 8.67 1.3 8.34 3 8 C2.37240135 5.07120629 1.41377341 2.63904371 0 0 Z " fill="none" stroke="#000000" stroke-width="4" transform="translate(133,48)"/>
<path d="M0 0 C0.78503906 0.24105469 1.57007812 0.48210938 2.37890625 0.73046875 C4.88043474 2.0453139 5.44379727 3.21813017 6.4375 5.8125 C5.40625 5.1525 4.375 4.4925 3.3125 3.8125 C-0.17453257 1.85499077 -2.51439523 1.037331 -6.5625 1.8125 C-8.0784375 3.0809375 -8.0784375 3.0809375 -9.625 4.375 C-12.5625 6.8125 -12.5625 6.8125 -15.4375 6.625 C-16.489375 6.2228125 -16.489375 6.2228125 -17.5625 5.8125 C-17.5625 5.1525 -17.5625 4.4925 -17.5625 3.8125 C-18.14 4.163125 -18.7175 4.51375 -19.3125 4.875 C-21.92051776 5.96167407 -22.95667629 5.74315133 -25.5625 4.8125 C-25.8925 3.4925 -26.2225 2.1725 -26.5625 0.8125 C-25.9025 1.4725 -25.2425 2.1325 -24.5625 2.8125 C-22.55613529 2.51990515 -20.55535937 2.18616113 -18.5625 1.8125 C-17.9025 2.1425 -17.2425 2.4725 -16.5625 2.8125 C-16.5625 3.4725 -16.5625 4.1325 -16.5625 4.8125 C-13.07906912 3.55459441 -10.48849768 2.05576489 -7.5625 -0.1875 C-4.18672775 -1.31275742 -3.28391708 -1.06578528 0 0 Z " fill="none" stroke="#000000" stroke-width="4" transform="translate(43.5625,53.1875)"/>
<path d="M0 0 C0.99 0.350625 1.98 0.70125 3 1.0625 C6.45539933 2.14231229 9.40015338 2.06922782 13 2 C13.66 2.33 14.32 2.66 15 3 C14.67 4.32 14.34 5.64 14 7 C10.37506666 7.05787784 6.75025143 7.0935542 3.125 7.125 C2.09246094 7.14175781 1.05992187 7.15851563 -0.00390625 7.17578125 C-0.99003906 7.18222656 -1.97617188 7.18867187 -2.9921875 7.1953125 C-4.35899658 7.21102295 -4.35899658 7.21102295 -5.75341797 7.22705078 C-8 7 -8 7 -10 5 C-9.75 2.4375 -9.75 2.4375 -9 0 C-5.88090623 -1.55954688 -3.37021877 -0.61787344 0 0 Z M-8 1 C-8 2.32 -8 3.64 -8 5 C-6.96593327 6.25949049 -6.96593327 6.25949049 -4.71484375 6.09765625 C-3.79832031 6.08605469 -2.88179687 6.07445313 -1.9375 6.0625 C-1.01839844 6.05347656 -0.09929687 6.04445313 0.84765625 6.03515625 C1.55792969 6.02355469 2.26820313 6.01195313 3 6 C3.33 5.01 3.66 4.02 4 3 C-0.1205746 1.00214565 -3.45194365 0.82164485 -8 1 Z M7 3 C7 3.99 7 4.98 7 6 C8.98 6 10.96 6 13 6 C13.33 5.34 13.66 4.68 14 4 C11.69 3.67 9.38 3.34 7 3 Z " fill="none" stroke="#000000" stroke-width="4" transform="translate(149,63)"/>
<path d="M0 0 C3.80489745 1.49478114 5.66190835 3.69442214 8 7 C8.33 7.99 8.66 8.98 9 10 C10.49985609 11.66710346 10.49985609 11.66710346 12 13 C9.6875 12.375 9.6875 12.375 7 11 C5.4375 8.1875 5.4375 8.1875 4 5 C2.70758949 3.30140333 1.38509525 1.62390477 0 0 Z " fill="none" stroke="#000000" stroke-width="4" transform="translate(128,65)"/>
<path d="M0 0 C3.33363045 2.64589007 4.03826418 5.68498903 5.1875 9.6875 C5.53167969 10.86699219 5.87585937 12.04648438 6.23046875 13.26171875 C6.48441406 14.16535156 6.73835938 15.06898437 7 16 C8.65 16.33 10.3 16.66 12 17 C12.144375 15.865625 12.28875 14.73125 12.4375 13.5625 C13 10 13 10 14 9 C17.72224599 8.70613847 18.77786243 8.85190829 22 11 C22.60328125 10.23623047 22.60328125 10.23623047 23.21875 9.45703125 C25 8 25 8 27.15625 8.07421875 C28.31640625 8.37779297 28.31640625 8.37779297 29.5 8.6875 C30.2734375 8.87699219 31.046875 9.06648438 31.84375 9.26171875 C34 10 34 10 37 12 C36.67 13.32 36.34 14.64 36 16 C35.505 14.02 35.505 14.02 35 12 C33.37675914 11.77837671 31.751279 11.57310197 30.125 11.375 C29.22007813 11.25898437 28.31515625 11.14296875 27.3828125 11.0234375 C26.59648438 11.01570313 25.81015625 11.00796875 25 11 C24.34 11.66 23.68 12.32 23 13 C21.125 12.6875 21.125 12.6875 19 12 C18.2575 11.814375 17.515 11.62875 16.75 11.4375 C16.1725 11.293125 15.595 11.14875 15 11 C14.67 12.32 14.34 13.64 14 15 C14.64453125 15.21398437 15.2890625 15.42796875 15.953125 15.6484375 C18 17 18 17 18.609375 19.6015625 C18.65578125 20.59929687 18.7021875 21.59703125 18.75 22.625 C18.80671875 23.62789062 18.8634375 24.63078125 18.921875 25.6640625 C18.94765625 26.43492188 18.9734375 27.20578125 19 28 C16.10765685 28.82638376 14.11257569 29 11 29 C9.61876037 30.96722008 8.28511874 32.96868328 7 35 C5.515 35.495 5.515 35.495 4 36 C3.525625 34.88625 3.05125 33.7725 2.5625 32.625 C1.74693537 30.73289006 0.92143645 28.84287291 0 27 C3.12621626 23.60582235 5.56541027 21.3937282 10 20 C9.22140625 19.63777344 8.4428125 19.27554688 7.640625 18.90234375 C4.22876263 16.44438965 3.82593388 14.57901587 2.75 10.5625 C2.27820312 8.86287109 2.27820312 8.86287109 1.796875 7.12890625 C0.51229508 2.08504098 0.51229508 2.08504098 0 0 Z M14 17 C13.2575 17.763125 12.515 18.52625 11.75 19.3125 C8.97304795 22.02633951 6.52594801 23.44202297 3 25 C3 28.27275026 3.29925156 30.846632 4 34 C4.99 34 5.98 34 7 34 C7.4125 33.030625 7.825 32.06125 8.25 31.0625 C10 28 10 28 12 27.0625 C14 27 14 27 17 28 C18.60080151 23.99799622 17.29279692 20.95443764 16 17 C15.34 17 14.68 17 14 17 Z " fill="none" stroke="#000000" stroke-width="4" transform="translate(50,59)"/>
<path d="M0 0 C4.70491803 2.40983607 4.70491803 2.40983607 6 5 C6.039992 6.99960012 6.04346799 9.00047242 6 11 C4.02 11.99 4.02 11.99 2 13 C-0.97550031 9.9315153 -1.96474513 8.53763669 -2.25 4.1875 C-2.1675 3.135625 -2.085 2.08375 -2 1 C-1.34 0.67 -0.68 0.34 0 0 Z M-1 2 C-0.81870185 5.43793339 -0.81870185 5.43793339 0 9 C1.93597032 10.51294288 1.93597032 10.51294288 4 11 C4.77802187 8.6984589 4.77802187 8.6984589 5 6 C3.8727078 3.63517472 3.8727078 3.63517472 2 2 C1.01 2 0.02 2 -1 2 Z " fill="none" stroke="#000000" stroke-width="4" transform="translate(72,74)"/>
<path d="M0 0 C1 2 1 2 1 6 C1.94875 6.4125 2.8975 6.825 3.875 7.25 C7 9 7 9 7.89453125 10.9921875 C9.40690061 13.73903503 10.86791649 13.94791973 13.8125 14.875 C18.83095698 16.69065014 21.01770392 18.62596575 24 23 C21.54006361 21.86464474 19.42821289 20.60610221 17.1875 19.0625 C14.7466048 17.48309722 12.89599445 16.50668812 10.25 15.5 C6.62930089 13.8289081 6.5751532 13.36032683 5 10 C3.989375 9.505 2.97875 9.01 1.9375 8.5 C-1 7 -1 7 -2 5 C-2 3 -2 3 0 0 Z " fill="none" stroke="#000000" stroke-width="4" transform="translate(84,75)"/>
<path d="M0 0 C0.66 0.66 1.32 1.32 2 2 C0 4 0 4 -3.5625 4.5 C-5.2640625 4.7475 -5.2640625 4.7475 -7 5 C-7.33 5.66 -7.66 6.32 -8 7 C-8 6.01 -8 5.02 -8 4 C-6.865625 3.71125 -5.73125 3.4225 -4.5625 3.125 C-3.386875 2.75375 -2.21125 2.3825 -1 2 C-0.67 1.34 -0.34 0.68 0 0 Z " fill="none" stroke="#000000" stroke-width="4" transform="translate(140,78)"/>
<path d="M0 0 C3.92013204 1.70440524 5.25773993 3.20155914 7 7 C12.98511371 6.65697965 17.75117306 6.17692157 23 3 C24.32 4.32 25.64 5.64 27 7 C26.071875 6.79375 25.14375 6.5875 24.1875 6.375 C20.84826598 5.63307034 20.84826598 5.63307034 18 8 C14.63006371 8.94263952 11.48916304 9.32776986 8 9 C5.2055296 7.37839127 3.211542 5.32463222 1 3 C-1.73905345 1.63047327 -3.97087332 1.87378639 -7 2 C-7.99 2.495 -7.99 2.495 -9 3 C-9 3.66 -9 4.32 -9 5 C-6.36 6.32 -3.72 7.64 -1 9 C-1 10.32 -1 11.64 -1 13 C-4.32534757 14.10844919 -6.62182575 13.84454356 -10 13 C-9.67 12.34 -9.34 11.68 -9 11 C-6.69 11.33 -4.38 11.66 -2 12 C-4.54456151 9.03134491 -7.48994665 7.6380249 -11 6 C-10.625 3.5625 -10.625 3.5625 -10 1 C-6.80621918 -0.59689041 -3.47478685 -0.37348957 0 0 Z " fill="none" stroke="#000000" stroke-width="4" transform="translate(228,80)"/>
<path d="M0 0 C0.495 2.475 0.495 2.475 1 5 C0.030625 5.2475 -0.93875 5.495 -1.9375 5.75 C-2.948125 6.1625 -3.95875 6.575 -5 7 C-5.59070014 8.94603274 -5.59070014 8.94603274 -6 11 C-9.20519925 13.40389944 -12.05372236 14.43624605 -16 15 C-16.4640625 13.7934375 -16.4640625 13.7934375 -16.9375 12.5625 C-18.6766231 9.83294184 -18.6766231 9.83294184 -21.02734375 9.62109375 C-22.60803166 9.53956076 -24.18876203 9.45884727 -25.76953125 9.37890625 C-29.26202923 8.78560975 -30.86908414 6.68082964 -33 4 C-30.13275314 4.57344937 -29.1385485 4.8614515 -27 7 C-25.906875 6.938125 -24.81375 6.87625 -23.6875 6.8125 C-20 7 -20 7 -17.0625 9.375 C-15 12 -15 12 -15 14 C-14.236875 13.34 -13.47375 12.68 -12.6875 12 C-10 10 -10 10 -7 10 C-6.67 8.35 -6.34 6.7 -6 5 C-4.02 4.67 -2.04 4.34 0 4 C-0.495 3.01 -0.495 3.01 -1 2 C-5.08669698 1.72932015 -5.08669698 1.72932015 -8.875 3 C-11.48673235 4.22905052 -13.37940509 4.20054197 -16.25 4.125 C-17.14203125 4.10695313 -18.0340625 4.08890625 -18.953125 4.0703125 C-19.96632812 4.03550781 -19.96632812 4.03550781 -21 4 C-21 3.67 -21 3.34 -21 3 C-20.26394531 2.87882812 -19.52789062 2.75765625 -18.76953125 2.6328125 C-17.79371094 2.46523437 -16.81789062 2.29765625 -15.8125 2.125 C-14.84957031 1.96257812 -13.88664062 1.80015625 -12.89453125 1.6328125 C-9.98495642 1.0828617 -9.98495642 1.0828617 -7.3125 -0.09375 C-4.47820561 -1.20448699 -2.8810236 -0.8231496 0 0 Z " fill="none" stroke="#000000" stroke-width="4" transform="translate(154,82)"/>
<path d="M0 0 C2.94068614 1.43614905 5.13798995 3.27289196 7.6875 5.3125 C10.3669645 6.55266669 10.3669645 6.55266669 12.6875 7.3125 C10.6875 8.3125 10.6875 8.3125 8.375 7.625 C5.6875 6.3125 5.6875 6.3125 3.125 4.1875 C0.67162212 1.90602616 0.67162212 1.90602616 -3.3125 2.3125 C-3.6425 2.9725 -3.9725 3.6325 -4.3125 4.3125 C-6.2925 4.3125 -8.2725 4.3125 -10.3125 4.3125 C-10.6425 3.6525 -10.9725 2.9925 -11.3125 2.3125 C-8.3425 2.8075 -8.3425 2.8075 -5.3125 3.3125 C-4.9825 2.3225 -4.6525 1.3325 -4.3125 0.3125 C-2.3125 -0.6875 -2.3125 -0.6875 0 0 Z " fill="none" stroke="#000000" stroke-width="4" transform="translate(266.3125,84.6875)"/>
<path d="M0 0 C0.86625 0.495 0.86625 0.495 1.75 1 C4.78842416 2.35041074 6.82172097 1.72233614 10 1 C9 4 9 4 7.25 4.875 C4.11649401 5.04908367 2.52342385 3.75237767 0 2 C0.639375 3.051875 1.27875 4.10375 1.9375 5.1875 C3.60558492 8.10369101 4.70024047 10.60272528 5 14 C4 15 4 15 1.5625 15.25 C0.716875 15.1675 -0.12875 15.085 -1 15 C-1.66 14.01 -2.32 13.02 -3 12 C-0.03 12.495 -0.03 12.495 3 13 C2.02992484 10.31363803 1.11792985 8.15421596 -0.625 5.875 C-2 4 -2 4 -2 1 C-1.34 0.67 -0.68 0.34 0 0 Z " fill="none" stroke="#000000" stroke-width="4" transform="translate(111,86)"/>
<path d="M0 0 C3.46447666 1.84050323 6.24289067 4.54828133 8 8.0625 C5.82742194 11.32136709 4.92828595 11.76429032 1.4375 13.1875 C-1.51194237 14.26985886 -1.51194237 14.26985886 -4 16.0625 C-5.99958364 16.10330783 -8.00045254 16.10504356 -10 16.0625 C-10.33 14.4125 -10.66 12.7625 -11 11.0625 C-10.01 10.4025 -9.02 9.7425 -8 9.0625 C-7.87625 8.27875 -7.7525 7.495 -7.625 6.6875 C-7 4.0625 -7 4.0625 -4.6875 1.6875 C-2 0.0625 -2 0.0625 0 0 Z M-2 1.0625 C-2 1.7225 -2 2.3825 -2 3.0625 C-2.61875 3.26875 -3.2375 3.475 -3.875 3.6875 C-6.83839739 5.60499243 -7.01737197 7.76367732 -8 11.0625 C-8.99 11.5575 -8.99 11.5575 -10 12.0625 C-9.67 13.0525 -9.34 14.0425 -9 15.0625 C-5.00112425 14.49123204 -2.40346284 13.18966428 1 11.0625 C2.65369357 10.36427383 4.31727014 9.68751395 6 9.0625 C4.75794193 5.33632578 2.8889325 3.66958543 0 1.0625 C-0.66 1.0625 -1.32 1.0625 -2 1.0625 Z " fill="none" stroke="#000000" stroke-width="4" transform="translate(157,87.9375)"/>
<path d="M0 0 C2.3125 2 2.3125 2 4 4 C0 3 0 3 -1.9375 2.25 C-4.95389599 1.88437624 -6.49976983 3.42090726 -9 5 C-9.66 4.67 -10.32 4.34 -11 4 C-4.38461538 -0.92307692 -4.38461538 -0.92307692 0 0 Z " fill="none" stroke="#000000" stroke-width="4" transform="translate(211,93)"/>
<path d="M0 0 C10.8713355 3.18892508 10.8713355 3.18892508 15 7 C15.375 10.75 15.375 10.75 15 14 C14.34 13.67 13.68 13.34 13 13 C13 11.35 13 9.7 13 8 C8.7162359 5.42974154 4.8274799 3.41292095 0 2 C0 1.34 0 0.68 0 0 Z " fill="none" stroke="#000000" stroke-width="4" transform="translate(279,93)"/>
<path d="M0 0 C2.625 0.375 2.625 0.375 5 1 C5.66 3.31 6.32 5.62 7 8 C7.94875 7.79375 8.8975 7.5875 9.875 7.375 C11.421875 7.189375 11.421875 7.189375 13 7 C15.5654594 9.5654594 15.54046087 11.47686668 16 15 C18.75641416 14.50243908 18.75641416 14.50243908 21 13 C23.65463121 12.54540142 26.32189138 12.29756762 29 12 C29 12.99 29 13.98 29 15 C27.948125 14.938125 26.89625 14.87625 25.8125 14.8125 C21.84183507 15.0077786 20.15803031 15.70325068 17 18 C14 16 14 16 13.3125 12.875 C13.209375 11.92625 13.10625 10.9775 13 10 C10.69 10 8.38 10 6 10 C5.01 7.36 4.02 4.72 3 2 C2.01 2.33 1.02 2.66 0 3 C0.33 4.98 0.66 6.96 1 9 C-0.75 9.75 -0.75 9.75 -3 10 C-5.25 8.0625 -5.25 8.0625 -7 6 C-6.96877057 7.96756452 -6.96877057 7.96756452 -6 10 C-5.071875 10.309375 -4.14375 10.61875 -3.1875 10.9375 C0.60088302 12.20029434 1.78340465 13.76036064 4 17 C2.125 16.6875 2.125 16.6875 0 16 C-0.66 15.01 -1.32 14.02 -2 13 C-2.99 12.731875 -3.98 12.46375 -5 12.1875 C-8 11 -8 11 -9.375 7.875 C-9.58125 6.92625 -9.7875 5.9775 -10 5 C-8.68 4.67 -7.36 4.34 -6 4 C-5.34 5.32 -4.68 6.64 -4 8 C-3.01 7.67 -2.02 7.34 -1 7 C-1.20625 6.21625 -1.4125 5.4325 -1.625 4.625 C-1.74875 3.75875 -1.8725 2.8925 -2 2 C-1.34 1.34 -0.68 0.68 0 0 Z " fill="none" stroke="#000000" stroke-width="4" transform="translate(266,95)"/>
<path d="M0 0 C0.33 0.66 0.66 1.32 1 2 C0.67 2.66 0.34 3.32 0 4 C-3.0625 4.625 -3.0625 4.625 -6 5 C-6.2475 5.928125 -6.495 6.85625 -6.75 7.8125 C-8.06454245 11.16458325 -8.97963384 12.1877803 -12 14 C-11.28850286 17.69978515 -9.92640731 20.76638772 -8 24 C-5.50240018 25.69882448 -5.50240018 25.69882448 -3 27 C-2.34 27.99 -1.68 28.98 -1 30 C1.58380177 30.25030977 1.58380177 30.25030977 4 30 C4.66 28.35 5.32 26.7 6 25 C9.71888239 25.50712033 12.73454239 26.11608215 16 28 C15.67 26.02 15.34 24.04 15 22 C15.99 21.67 16.98 21.34 18 21 C18.515625 21.845625 19.03125 22.69125 19.5625 23.5625 C20.366875 24.366875 21.17125 25.17125 22 26 C25.70054409 25.9363921 25.70054409 25.9363921 29 25 C28.95875 24.21625 28.9175 23.4325 28.875 22.625 C29 20 29 20 31 18 C34.29279709 18.31865778 35.86535088 19.54515351 38 22 C38.825 21.67 39.65 21.34 40.5 21 C44.5873983 19.83217191 47.76923344 19.8541115 52 20 C51.38722388 22.96175123 50.74627478 24.38058783 49 27 C50.98 27.66 52.96 28.32 55 29 C55.99 28.01 56.98 27.02 58 26 C58.99 26.66 59.98 27.32 61 28 C61 28.66 61 29.32 61 30 C61.763125 29.896875 62.52625 29.79375 63.3125 29.6875 C64.199375 29.790625 65.08625 29.89375 66 30 C67.875 32.375 67.875 32.375 69 35 C68.505 35.99 68.505 35.99 68 37 C67.4121875 35.7934375 67.4121875 35.7934375 66.8125 34.5625 C65.25948551 31.77623274 65.25948551 31.77623274 62.5 31.375 C61.675 31.25125 60.85 31.1275 60 31 C58.1875 29.4375 58.1875 29.4375 57 28 C56.34 29.32 55.68 30.64 55 32 C51.63408134 30.55746343 49.48952921 28.66735273 47 26 C47.99 24.35 48.98 22.7 50 21 C49.40832031 21.22816406 48.81664062 21.45632812 48.20703125 21.69140625 C40.10081162 24.64032465 40.10081162 24.64032465 36 23 C33.6875 21.4375 33.6875 21.4375 32 20 C31.773125 20.94875 31.54625 21.8975 31.3125 22.875 C30 26 30 26 27.6875 27.4375 C24.67284114 28.06847511 22.90201767 28.01962783 20 27 C19.34 26.01 18.68 25.02 18 24 C17.505 26.475 17.505 26.475 17 29 C15.25 29.6875 15.25 29.6875 13 30 C10.875 28.5625 10.875 28.5625 9 27 C8.34 27 7.68 27 7 27 C6.814375 27.639375 6.62875 28.27875 6.4375 28.9375 C5 31 5 31 1.6875 32.0625 C-2 32 -2 32 -4.75 29.6875 C-5.4925 28.800625 -6.235 27.91375 -7 27 C-7.99 26.34 -8.98 25.68 -10 25 C-11.03291676 23.01679982 -12.0337499 21.01652194 -13 19 C-13.66 18.34 -14.32 17.68 -15 17 C-14.9375 15.125 -14.9375 15.125 -14 13 C-13.195625 12.38125 -12.39125 11.7625 -11.5625 11.125 C-8.54324647 8.62122878 -7.93636326 6.74545303 -7 3 C-5.02 3 -3.04 3 -1 3 C-0.67 2.01 -0.34 1.02 0 0 Z " fill="none" stroke="#000000" stroke-width="4" transform="translate(199,98)"/>
<path d="M0 0 C2.00359549 1.65814799 2.91300124 2.56735754 3.43359375 5.15625 C3.44423647 11.54188114 3.44423647 11.54188114 1 14.0625 C0.34 14.371875 -0.32 14.68125 -1 15 C-1.33 14.34 -1.66 13.68 -2 13 C-1.01 12.34 -0.02 11.68 1 11 C1.28527337 7.14880946 1.18082522 3.69007882 0 0 Z " fill="none" stroke="#000000" stroke-width="4" transform="translate(270,122)"/>
<path d="M0 0 C1.216875 0.103125 2.43375 0.20625 3.6875 0.3125 C7 1 7 1 9.0625 2.5625 C10.54416668 6.41483337 9.22829855 9.12116248 8 13 C8.99 13.495 8.99 13.495 10 14 C10.33 12.02 10.66 10.04 11 8 C12.65 8 14.3 8 16 8 C15.649375 7.4225 15.29875 6.845 14.9375 6.25 C13.85082593 3.64198224 14.06934867 2.60582371 15 0 C20.53846154 -0.36923077 20.53846154 -0.36923077 22.875 1.5 C23.24625 1.995 23.6175 2.49 24 3 C21.36 2.67 18.72 2.34 16 2 C16.515625 2.763125 17.03125 3.52625 17.5625 4.3125 C18.036875 5.199375 18.51125 6.08625 19 7 C18.67 7.99 18.34 8.98 18 10 C16.02 9.67 14.04 9.34 12 9 C12 10.65 12 12.3 12 14 C10.35 14.33 8.7 14.66 7 15 C5.94028855 10.99664564 6.26486032 8.04326822 7 4 C5.14067519 2.14067519 2.25750331 2.44331032 -0.25 2.1875 C-1.38953125 2.05730469 -2.5290625 1.92710937 -3.703125 1.79296875 C-7.76995398 2.04835019 -8.93535174 3.44694631 -12 6 C-14.76171875 6.328125 -14.76171875 6.328125 -17.6875 6.25 C-24.07912986 6.55436333 -26.7796765 8.83095928 -31.43359375 12.984375 C-36.87444423 17.25755437 -43.82643949 19.40199929 -50.75 19.1875 C-54.511871 18.57290348 -56.26920575 17.03264237 -58.9375 14.375 C-61.19205616 12.18781106 -62.34581077 11.10008889 -65.4765625 10.62109375 C-71.15627966 11.04149578 -75.4681493 12.57799029 -80 16 C-83.15593943 20.47939791 -83.58666168 24.66234043 -83 30 C-82.44816337 33.03274318 -81.77349837 36.01650629 -81 39 C-83.92806277 36.32655138 -84.87955939 34.35051437 -85.23828125 30.328125 C-85.40020651 23.61248799 -85.30274605 19.29568745 -81 14 C-75.83690268 10.10133467 -69.56360741 7.6144724 -63 8 C-60.03899251 9.90011176 -58.15824245 12.26287036 -56 15 C-51.37915368 17.31042316 -45.2167666 16.5387749 -40.33203125 15.3515625 C-35.72941292 13.68177538 -32.58291569 11.77754542 -29.125 8.3125 C-24.96011386 4.30878053 -21.31016106 4.37234308 -15.71484375 4.23828125 C-12.13873567 3.92440702 -10.42225405 2.58373765 -8 0 C-5.10447054 -1.44776473 -3.1563396 -0.59553577 0 0 Z " fill="none" stroke="#000000" stroke-width="4" transform="translate(127,147)"/>
<path d="M0 0 C3.2626876 3.08632611 6.02235218 5.93483504 8 10 C7.67 10.66 7.34 11.32 7 12 C5.82767315 10.3790787 4.6622923 8.75313167 3.5 7.125 C2.8503125 6.22007812 2.200625 5.31515625 1.53125 4.3828125 C0 2 0 2 0 0 Z " fill="none" stroke="#000000" stroke-width="4" transform="translate(155,154)"/>
<path d="M0 0 C0.59167969 0.08378906 1.18335938 0.16757813 1.79296875 0.25390625 C6.21623979 0.8239526 9.6159715 0.8768057 14 0 C16.3125 0.9375 16.3125 0.9375 18 2 C17.67 3.65 17.34 5.3 17 7 C6.61111111 10.80246914 6.61111111 10.80246914 3 10 C0.1875 7.5 0.1875 7.5 -2 5 C-1.34 3.35 -0.68 1.7 0 0 Z M1 1 C0.67 2.65 0.34 4.3 0 6 C2.26120648 8.07233541 3.34352035 9.01970476 6.47265625 8.92578125 C7.75462891 8.62220703 7.75462891 8.62220703 9.0625 8.3125 C9.91972656 8.12300781 10.77695313 7.93351563 11.66015625 7.73828125 C14.23282848 7.0460111 14.23282848 7.0460111 17 5 C17 4.34 17 3.68 17 3 C11.67787852 2.20734361 6.3503559 1.57021934 1 1 Z " fill="none" stroke="#000000" stroke-width="4" transform="translate(213,161)"/>
<path d="M0 0 C6.67353409 0.28398017 10.71077185 3.07805532 16 7 C15.01 7.495 15.01 7.495 14 8 C12.30078125 7.0390625 12.30078125 7.0390625 10.3125 5.625 C6.42909293 3.06209332 3.61219245 2.28826203 -1 2 C-0.67 1.34 -0.34 0.68 0 0 Z " fill="none" stroke="#000000" stroke-width="4" transform="translate(188,165)"/>
<path d="M0 0 C0.66 0.33 1.32 0.66 2 1 C-1.66897025 4.34523758 -4.12145245 5.36366771 -9 6 C-9.99 6.66 -10.98 7.32 -12 8 C-14.625 7.75 -14.625 7.75 -17 7 C-17.33 6.34 -17.66 5.68 -18 5 C-17.2575 5.226875 -16.515 5.45375 -15.75 5.6875 C-12.22063035 6.08856473 -11.74335573 5.09786027 -9 3 C-6.67085177 2.63858045 -4.33746522 2.30300475 -2 2 C-1.34 1.34 -0.68 0.68 0 0 Z " fill="none" stroke="#000000" stroke-width="4" transform="translate(185,167)"/>
<path d="M0 0 C8.07415887 0.87253007 14.80319569 2.54551449 22.1953125 5.8984375 C26.14501222 7.44971232 29.79011886 7.66049346 34 8 C36 10 36 10 36 14 C36.86882812 13.77183594 37.73765625 13.54367188 38.6328125 13.30859375 C39.78523438 13.02113281 40.93765625 12.73367187 42.125 12.4375 C43.83042969 12.00244141 43.83042969 12.00244141 45.5703125 11.55859375 C53.02843808 10.34388765 58.79343695 13.14186621 65 17 C65.66 17.33 66.32 17.66 67 18 C66.796875 20.35546875 66.796875 20.35546875 66 23 C63.890625 24.36328125 63.890625 24.36328125 61.25 25.3125 C60.38890625 25.63863281 59.5278125 25.96476562 58.640625 26.30078125 C54.67404406 27.35110372 51.88883711 27.29627904 48 26 C44.50294871 27.28432339 44.50294871 27.28432339 41 29 C40.2575 29.33 39.515 29.66 38.75 30 C36.92748537 30.90961313 36.92748537 30.90961313 35.703125 32.52734375 C33.44994815 34.47561823 31.94299128 34.42673701 29 34.5625 C25.31096349 34.74365804 24.18809914 34.87460058 21 37 C17.5774685 37 15.06004298 36.95430303 12.43359375 34.58984375 C11.21348705 33.11945875 10.097934 31.56372419 9 30 C6.52733235 30.34444881 6.52733235 30.34444881 4 31 C3.67 31.66 3.34 32.32 3 33 C4.65 33.66 6.3 34.32 8 35 C7.67 36.32 7.34 37.64 7 39 C6.113125 38.979375 5.22625 38.95875 4.3125 38.9375 C1.08751586 38.88058737 1.08751586 38.88058737 -1.625 39.625 C-4.53168613 40.08395044 -5.45677456 39.35108852 -8 38 C-8.825 38.020625 -9.65 38.04125 -10.5 38.0625 C-13.63175263 37.98420618 -14.6075308 36.92941065 -17 35 C-19.14733927 34.29485154 -19.14733927 34.29485154 -21 34 C-18.75 33.3125 -18.75 33.3125 -16 33 C-15.38125 33.474375 -14.7625 33.94875 -14.125 34.4375 C-11.09366824 36.66642041 -8.69017704 36.1294799 -5 36 C-4.154375 36.185625 -3.30875 36.37125 -2.4375 36.5625 C0.5825421 37.10455884 3.01754654 36.62423444 6 36 C4.68 35.34 3.36 34.68 2 34 C2.875 29.125 2.875 29.125 4 28 C6.75 27.5625 6.75 27.5625 10 28 C11.71140469 29.96185416 13.37873325 31.96302383 15 34 C17.43099674 35.23684105 17.43099674 35.23684105 20 35 C20.763125 34.525625 21.52625 34.05125 22.3125 33.5625 C25.18705693 31.89124597 25.85227444 31.89467862 29 32.125 C31.06356842 32.27277924 31.06356842 32.27277924 33 32 C35.60414714 29.64587234 35.60414714 29.64587234 38 27 C41.4375 25.75 41.4375 25.75 45 25 C46.051875 24.773125 47.10375 24.54625 48.1875 24.3125 C51 24 51 24 52.8515625 24.59375 C55.78326134 25.1481076 57.45782955 24.3285587 60.1875 23.1875 C61.06792969 22.83042969 61.94835937 22.47335938 62.85546875 22.10546875 C65.15142525 21.18890563 65.15142525 21.18890563 66 19 C65.05125 18.71125 64.1025 18.4225 63.125 18.125 C60 17 60 17 58 15 C52.3562696 13.01974372 48.85568291 12.93394881 43.12109375 14.484375 C40.38450243 15.14962372 37.80173595 15.14367877 35 15 C34.78472656 14.19691406 34.56945312 13.39382812 34.34765625 12.56640625 C33.25765703 9.7573395 33.25765703 9.7573395 30.49609375 9.21484375 C29.48675781 9.12332031 28.47742188 9.03179687 27.4375 8.9375 C22.44250333 8.31238123 18.7193401 7.1571697 14.23828125 4.9453125 C10.94374605 3.55390322 7.58751452 3.03220097 4.06640625 2.4921875 C2 2 2 2 0 0 Z " fill="none" stroke="#000000" stroke-width="4" transform="translate(204,173)"/>
<path d="M0 0 C0 4.26826873 -0.37613513 4.93882432 -3 8 C-2.41992188 7.77183594 -1.83984375 7.54367188 -1.2421875 7.30859375 C3.65708116 5.50572756 6.83154553 4.62877738 12 6 C13.74892303 6.33893857 15.49902102 6.671848 17.25 7 C21.74257426 7.87128713 21.74257426 7.87128713 24 9 C26.49253376 9.12419345 28.94490756 9.18515513 31.4375 9.1875 C32.11876953 9.19974609 32.80003906 9.21199219 33.50195312 9.22460938 C37.22829809 9.23555848 38.81991571 9.12005619 42 7 C44.48046875 6.5859375 44.48046875 6.5859375 47.1875 6.375 C48.08855469 6.30023438 48.98960937 6.22546875 49.91796875 6.1484375 C50.60503906 6.09945312 51.29210937 6.05046875 52 6 C51.67 6.66 51.34 7.32 51 8 C49.00718243 8.25713775 47.01170139 8.50836152 45.0078125 8.65625 C42.69017751 8.91308355 42.69017751 8.91308355 40 11 C37.48878845 11.3542551 35.08479218 11.60006509 32.5625 11.75 C31.55993164 11.83314453 31.55993164 11.83314453 30.53710938 11.91796875 C26.68775099 12.16976028 24.30743105 11.94513461 21 10 C19.34513719 9.59424037 17.67652017 9.24162485 16 8.9375 C11.12497993 8.0382966 11.12497993 8.0382966 8.87109375 7.34765625 C6.74201815 6.75532964 6.74201815 6.75532964 4.0625 8.5 C0.68544179 10.15406933 -0.50625616 10.13032889 -4 9 C-3.45276317 5.62537285 -2.9451 3.91765 -1 1 C-3.31 1.66 -5.62 2.32 -8 3 C-7.74121789 7.31303514 -7.29529505 10.02452115 -4.375 13.1875 C-2 16 -2 16 -2.1875 18.375 C-3 20 -3 20 -4.74609375 20.703125 C-7 21 -7 21 -9.03515625 19.671875 C-9.70417969 19.03765625 -10.37320313 18.4034375 -11.0625 17.75 C-12.06990234 16.81414062 -12.06990234 16.81414062 -13.09765625 15.859375 C-14.74347551 14.2507303 -16.38025902 12.63487874 -18 11 C-17.67 10.34 -17.34 9.68 -17 9 C-16.39671875 9.63808594 -15.7934375 10.27617187 -15.171875 10.93359375 C-14.37265625 11.75988281 -13.5734375 12.58617187 -12.75 13.4375 C-11.96109375 14.26121094 -11.1721875 15.08492187 -10.359375 15.93359375 C-8.09265283 17.91885207 -6.9328063 18.6300359 -4 19 C-4.61875 18.01 -4.61875 18.01 -5.25 17 C-5.8275 16.01 -6.405 15.02 -7 14 C-7.38285156 13.360625 -7.76570313 12.72125 -8.16015625 12.0625 C-11.15095325 6.70948028 -11.15095325 6.70948028 -10.375 3.0625 C-7.69854165 -0.95218752 -4.49441792 -0.08322996 0 0 Z " fill="none" stroke="#000000" stroke-width="4" transform="translate(131,202)"/>
<path d="M0 0 C0.33 0 0.66 0 1 0 C1.35814021 4.47675261 1.27439461 7.57317593 -1.4453125 11.265625 C-4.40183525 14.56385641 -7.68691736 17.54742585 -10.953125 20.53515625 C-13.22559915 22.825633 -13.22559915 22.825633 -13.359375 25.74609375 C-13.23186784 27.96378141 -13.23186784 27.96378141 -12 29 C-8.47428202 29.503674 -5.99145979 29.67114201 -2.96875 27.625 C-2.2984375 27.068125 -1.628125 26.51125 -0.9375 25.9375 C2.61524808 22.99300451 2.61524808 22.99300451 6.4375 23.0625 C9 24 9 24 10 25 C11.35844456 25.05035421 12.71944556 25.03574601 14.078125 24.9921875 C14.90957031 24.97542969 15.74101563 24.95867187 16.59765625 24.94140625 C18.35048486 24.897521 20.10313236 24.84558164 21.85546875 24.78515625 C26.89917222 24.69966975 29.76446076 24.9994965 34 28 C37.70028236 27.78233633 39.35491041 27.64508959 42 25 C44.56057017 24.52538631 47.04313037 24.16083312 49.625 23.875 C50.31207031 23.78863281 50.99914062 23.70226562 51.70703125 23.61328125 C56.49882996 23.04689604 61.17604729 22.9241176 66 23 C66.495 23.99 66.495 23.99 67 25 C65.94941406 25.04898438 64.89882812 25.09796875 63.81640625 25.1484375 C50.81471087 25.39895505 50.81471087 25.39895505 39 30 C35.30592747 30.4104525 33.4189177 30.22767266 30.125 28.4375 C26.6983925 26.86126055 24.81140301 27.03509622 21.15234375 27.66015625 C11.61461794 29.16611296 11.61461794 29.16611296 7.75 26.375 C7.1725 25.92125 6.595 25.4675 6 25 C2.82039152 25.7337558 1.08788941 26.92367499 -1.375 29.0625 C-4.67372278 31.49727158 -6.92344615 31.92588084 -11 32 C-13.375 30.875 -13.375 30.875 -15 29 C-15.7890625 26.62109375 -15.7890625 26.62109375 -16 24 C-14.8125 22.04296875 -14.8125 22.04296875 -13 20.1875 C-12.35675781 19.50042969 -11.71351562 18.81335938 -11.05078125 18.10546875 C-10.03564453 17.06326172 -10.03564453 17.06326172 -9 16 C-3.96339836 10.822655 -1.1623319 7.2322874 0 0 Z " fill="none" stroke="#000000" stroke-width="4" transform="translate(46,186)"/>
</svg>